<?xml version="1.0" encoding="UTF-8"?>
<!DOCTYPE svg PUBLIC "-//W3C//DTD SVG 1.1//EN" "http://www.w3.org/Graphics/SVG/1.1/DTD/svg11.dtd">
<svg xmlns="http://www.w3.org/2000/svg" version="1.1" width="180px" height="180px" style="shape-rendering:geometricPrecision; text-rendering:geometricPrecision; image-rendering:optimizeQuality; fill-rule:evenodd; clip-rule:evenodd" xmlns:xlink="http://www.w3.org/1999/xlink">
<g><path style="opacity:1" fill="#e2e6ef" d="M -0.5,0.5 C -0.5,0.166667 -0.5,-0.166667 -0.5,-0.5C 59.5,-0.5 119.5,-0.5 179.5,-0.5C 179.5,-0.166667 179.5,0.166667 179.5,0.5C 175.833,0.5 172.167,0.5 168.5,0.5C 167.833,0.5 167.167,0.5 166.5,0.5C 165.5,0.5 164.5,0.5 163.5,0.5C 160.833,0.5 158.167,0.5 155.5,0.5C 154.5,0.5 153.5,0.5 152.5,0.5C 151.167,0.5 149.833,0.5 148.5,0.5C 147.833,0.5 147.167,0.5 146.5,0.5C 129.833,0.5 113.167,0.5 96.5,0.5C 93.8333,0.5 91.1667,0.5 88.5,0.5C 77.5,0.5 66.5,0.5 55.5,0.5C 55.1667,0.5 54.8333,0.5 54.5,0.5C 49.5,0.5 44.5,0.5 39.5,0.5C 36.1592,-0.157057 34.1592,1.17628 33.5,4.5C 32.5712,5.54982 31.9046,5.54982 31.5,4.5C 32.0283,3.27935 32.695,2.11268 33.5,1C 32.9056,0.535656 32.2389,0.368989 31.5,0.5C 25.1667,0.5 18.8333,0.5 12.5,0.5C 9.16667,0.5 5.83333,0.5 2.5,0.5C 1.5,0.5 0.5,0.5 -0.5,0.5 Z"/></g>
<g><path style="opacity:1" fill="#ccd2e6" d="M 55.5,0.5 C 66.5,0.5 77.5,0.5 88.5,0.5C 87.2824,4.55238 84.7824,7.55238 81,9.5C 80.0984,13.5479 78.4318,17.2146 76,20.5C 75.5065,22.1341 75.3398,23.8008 75.5,25.5C 74.5,25.5 73.5,25.5 72.5,25.5C 72.719,26.675 72.3857,27.675 71.5,28.5C 70.8589,27.0065 69.8589,26.0065 68.5,25.5C 66.1827,20.9505 64.8494,15.9505 64.5,10.5C 63.2886,19.1745 63.2886,27.8412 64.5,36.5C 65.1582,41.9617 63.8249,46.6284 60.5,50.5C 54.6358,34.311 52.9691,17.6444 55.5,0.5 Z"/></g>
<g><path style="opacity:1" fill="#33353c" d="M -0.5,0.5 C 0.5,0.5 1.5,0.5 2.5,0.5C 1.89022,1.39105 1.55688,2.39105 1.5,3.5C 0.833333,3.83333 0.166667,4.16667 -0.5,4.5C -0.5,3.16667 -0.5,1.83333 -0.5,0.5 Z"/></g>
<g><path style="opacity:1" fill="#7e8991" d="M 2.5,0.5 C 5.83333,0.5 9.16667,0.5 12.5,0.5C 12.5,0.833333 12.5,1.16667 12.5,1.5C 12.5,2.16667 12.1667,2.5 11.5,2.5C 9.73535,1.53862 7.73535,1.20528 5.5,1.5C 5.55195,3.90291 5.21862,6.23625 4.5,8.5C 3.83333,8.83333 3.16667,9.16667 2.5,9.5C 2.82095,8.18252 3.15428,6.84918 3.5,5.5C 3.25284,4.28665 2.58617,3.61998 1.5,3.5C 1.55688,2.39105 1.89022,1.39105 2.5,0.5 Z"/></g>
<g><path style="opacity:1" fill="#d6dff8" d="M 12.5,1.5 C 12.5,1.16667 12.5,0.833333 12.5,0.5C 18.8333,0.5 25.1667,0.5 31.5,0.5C 28.89,5.10886 25.89,9.44219 22.5,13.5C 19.8493,15.6628 17.6826,18.3295 16,21.5C 16.9167,18.2858 17.2501,14.9525 17,11.5C 14.2805,8.68116 11.9472,9.01449 10,12.5C 10.7555,8.8071 12.2555,5.3071 14.5,2C 13.9056,1.53566 13.2389,1.36899 12.5,1.5 Z"/></g>
<g><path style="opacity:1" fill="#a3a2dd" d="M 168.5,0.5 C 172.167,0.5 175.833,0.5 179.5,0.5C 179.5,5.16667 179.5,9.83333 179.5,14.5C 177.983,14.4894 176.816,13.8228 176,12.5C 174.098,8.10405 171.598,4.10405 168.5,0.5 Z"/></g>
<g><path style="opacity:1" fill="#829285" d="M 1.5,3.5 C 2.58617,3.61998 3.25284,4.28665 3.5,5.5C 3.15428,6.84918 2.82095,8.18252 2.5,9.5C 1.88972,11.4341 0.889724,13.1007 -0.5,14.5C -0.5,11.1667 -0.5,7.83333 -0.5,4.5C 0.166667,4.16667 0.833333,3.83333 1.5,3.5 Z"/></g>
<g><path style="opacity:1" fill="#a4a8d4" d="M 96.5,0.5 C 113.167,0.5 129.833,0.5 146.5,0.5C 146.5,1.16667 146.167,1.5 145.5,1.5C 135.833,1.5 126.167,1.5 116.5,1.5C 115.761,1.36899 115.094,1.53566 114.5,2C 118.193,13.6055 121.193,25.4388 123.5,37.5C 125.059,45.4017 127.392,53.0684 130.5,60.5C 124.33,54.4839 119.496,47.4839 116,39.5C 114.321,29.0915 112.321,18.7582 110,8.5C 109.501,13.1548 109.334,17.8215 109.5,22.5C 108.837,24.0419 108.17,25.7086 107.5,27.5C 105.554,25.913 104.054,26.2464 103,28.5C 101.213,25.9464 99.7128,23.2798 98.5,20.5C 97.5108,24.1073 97.1774,27.774 97.5,31.5C 94.8992,30.7204 92.8992,29.0537 91.5,26.5C 90.5713,27.6888 90.238,29.0222 90.5,30.5C 88.3881,31.2751 86.3881,31.2751 84.5,30.5C 83.962,28.8828 83.6287,27.2161 83.5,25.5C 82.5,25.5 81.5,25.5 80.5,25.5C 81.0525,23.0607 81.0525,20.7273 80.5,18.5C 80.8457,17.3044 81.3457,17.3044 82,18.5C 82.5,17 83,15.5 83.5,14C 82.3726,12.9433 81.8726,11.7766 82,10.5C 84.0259,8.90264 86.3592,7.90264 89,7.5C 90.5971,8.88472 92.4305,9.55138 94.5,9.5C 94.5,10.5 94.5,11.5 94.5,12.5C 95.5,12.5 96.5,12.5 97.5,12.5C 97.693,8.43378 97.3597,4.43378 96.5,0.5 Z"/></g>
<g><path style="opacity:1" fill="#6f675e" d="M 152.5,0.5 C 153.5,0.5 154.5,0.5 155.5,0.5C 155.833,1.83333 156.167,3.16667 156.5,4.5C 156.167,4.5 155.833,4.5 155.5,4.5C 154.5,4.5 153.5,4.5 152.5,4.5C 152.653,7.53528 151.32,9.53528 148.5,10.5C 149.292,6.9217 150.625,3.58837 152.5,0.5 Z"/></g>
<g><path style="opacity:1" fill="#a2a4d3" d="M 116.5,1.5 C 126.167,1.5 135.833,1.5 145.5,1.5C 143.934,7.20897 141.6,12.5423 138.5,17.5C 140.531,19.1747 142.531,20.8414 144.5,22.5C 143.417,22.4606 142.417,22.1272 141.5,21.5C 141.167,22.1667 140.833,22.8333 140.5,23.5C 146.638,31.3562 149.304,40.3562 148.5,50.5C 148.167,53.1667 147.833,55.8333 147.5,58.5C 144.744,54.6541 142.244,50.6541 140,46.5C 140.667,49.8333 141.333,53.1667 142,56.5C 137.546,51.3718 133.879,45.7051 131,39.5C 126.064,26.7896 121.23,14.1229 116.5,1.5 Z"/></g>
<g><path style="opacity:1" fill="#a0a2cc" d="M 163.5,0.5 C 164.5,0.5 165.5,0.5 166.5,0.5C 169.598,4.10405 172.098,8.10405 174,12.5C 175.704,14.3734 177.537,16.0401 179.5,17.5C 179.5,20.5 179.5,23.5 179.5,26.5C 176.888,25.2213 174.555,23.5547 172.5,21.5C 170.5,19.8333 168.5,18.1667 166.5,16.5C 165.207,11.3071 164.207,5.97375 163.5,0.5 Z"/></g>
<g><path style="opacity:1" fill="#6e6ea0" d="M 166.5,0.5 C 167.167,0.5 167.833,0.5 168.5,0.5C 171.598,4.10405 174.098,8.10405 176,12.5C 176.816,13.8228 177.983,14.4894 179.5,14.5C 179.5,15.5 179.5,16.5 179.5,17.5C 177.537,16.0401 175.704,14.3734 174,12.5C 172.098,8.10405 169.598,4.10405 166.5,0.5 Z"/></g>
<g><path style="opacity:1" fill="#c3cae6" d="M 39.5,0.5 C 37.2596,6.1793 34.2596,11.5126 30.5,16.5C 30.8333,16.8333 31.1667,17.1667 31.5,17.5C 34.4897,15.4226 37.6564,13.7559 41,12.5C 41.8333,12.6667 42.6667,12.8333 43.5,13C 42.1667,13.6667 42.1667,14.3333 43.5,15C 42.8333,15.3333 42.1667,15.6667 41.5,16C 42.7932,16.49 44.1266,16.6567 45.5,16.5C 45.1205,19.5669 46.1205,20.5669 48.5,19.5C 44.194,26.8161 39.8607,34.1494 35.5,41.5C 31.8062,44.5271 28.4729,47.8604 25.5,51.5C 25.5,49.5 25.5,47.5 25.5,45.5C 21.4862,45.6655 17.4862,45.4988 13.5,45C 13,44.5 12.5,44 12,43.5C 10.9741,46.2387 9.47406,48.572 7.5,50.5C 14.2987,34.4148 22.2987,19.0815 31.5,4.5C 31.9046,5.54982 32.5712,5.54982 33.5,4.5C 34.1592,1.17628 36.1592,-0.157057 39.5,0.5 Z"/></g>
<g><path style="opacity:1" fill="#1b170f" d="M 155.5,4.5 C 153.507,7.81575 151.507,11.1491 149.5,14.5C 149.754,16.4172 150.754,17.7505 152.5,18.5C 152.5,18.8333 152.5,19.1667 152.5,19.5C 152.167,19.5 151.833,19.5 151.5,19.5C 147.726,17.8436 146.726,15.177 148.5,11.5C 148.5,11.1667 148.5,10.8333 148.5,10.5C 151.32,9.53528 152.653,7.53528 152.5,4.5C 153.5,4.5 154.5,4.5 155.5,4.5 Z"/></g>
<g><path style="opacity:1" fill="#54654c" d="M 152.5,19.5 C 152.5,19.1667 152.5,18.8333 152.5,18.5C 152.055,15.6354 152.722,13.1354 154.5,11C 157.002,10.7201 158.669,11.8868 159.5,14.5C 158.113,14.8072 156.446,14.8072 154.5,14.5C 154.923,16.7812 154.256,18.4479 152.5,19.5 Z"/></g>
<g><path style="opacity:1" fill="#9c9690" d="M 148.5,0.5 C 149.833,0.5 151.167,0.5 152.5,0.5C 150.625,3.58837 149.292,6.9217 148.5,10.5C 148.5,10.8333 148.5,11.1667 148.5,11.5C 146.787,12.6354 146.12,14.302 146.5,16.5C 144.435,16.5172 142.435,16.8505 140.5,17.5C 143.017,11.7645 145.684,6.09787 148.5,0.5 Z"/></g>
<g><path style="opacity:1" fill="#c8d1ec" d="M 4.5,8.5 C 5.37644,8.36912 6.04311,8.70245 6.5,9.5C 4.64788,14.5377 2.31454,19.2044 -0.5,23.5C -0.5,20.5 -0.5,17.5 -0.5,14.5C 0.889724,13.1007 1.88972,11.4341 2.5,9.5C 3.16667,9.16667 3.83333,8.83333 4.5,8.5 Z"/></g>
<g><path style="opacity:1" fill="#cfd7ef" d="M 39.5,0.5 C 44.5,0.5 49.5,0.5 54.5,0.5C 52.907,6.94626 50.907,13.2796 48.5,19.5C 46.1205,20.5669 45.1205,19.5669 45.5,16.5C 44.1266,16.6567 42.7932,16.49 41.5,16C 42.1667,15.6667 42.8333,15.3333 43.5,15C 42.1667,14.3333 42.1667,13.6667 43.5,13C 42.6667,12.8333 41.8333,12.6667 41,12.5C 37.6564,13.7559 34.4897,15.4226 31.5,17.5C 31.1667,17.1667 30.8333,16.8333 30.5,16.5C 34.2596,11.5126 37.2596,6.1793 39.5,0.5 Z"/></g>
<g><path style="opacity:1" fill="#3e4634" d="M 155.5,4.5 C 155.833,4.5 156.167,4.5 156.5,4.5C 157.584,6.31863 158.918,7.9853 160.5,9.5C 161.298,7.92226 161.798,6.2556 162,4.5C 162.849,8.90218 164.016,13.2355 165.5,17.5C 165.182,18.6473 164.516,19.4806 163.5,20C 164.308,20.3076 164.975,20.8076 165.5,21.5C 164.527,25.1566 164.361,28.8233 165,32.5C 163.619,30.3651 162.619,28.0318 162,25.5C 161.536,26.0944 161.369,26.7611 161.5,27.5C 160.691,25.7078 160.191,23.7078 160,21.5C 159.311,22.3567 158.478,23.0233 157.5,23.5C 155.71,21.6843 153.71,20.3509 151.5,19.5C 151.833,19.5 152.167,19.5 152.5,19.5C 154.256,18.4479 154.923,16.7812 154.5,14.5C 156.446,14.8072 158.113,14.8072 159.5,14.5C 158.669,11.8868 157.002,10.7201 154.5,11C 152.722,13.1354 152.055,15.6354 152.5,18.5C 150.754,17.7505 149.754,16.4172 149.5,14.5C 151.507,11.1491 153.507,7.81575 155.5,4.5 Z"/></g>
<g><path style="opacity:1" fill="#5b5a6a" d="M 146.5,0.5 C 147.167,0.5 147.833,0.5 148.5,0.5C 145.684,6.09787 143.017,11.7645 140.5,17.5C 145.126,20.4578 149.126,24.1245 152.5,28.5C 149.569,26.9092 146.902,24.9092 144.5,22.5C 142.531,20.8414 140.531,19.1747 138.5,17.5C 141.6,12.5423 143.934,7.20897 145.5,1.5C 146.167,1.5 146.5,1.16667 146.5,0.5 Z"/></g>
<g><path style="opacity:1" fill="#6b655c" d="M 148.5,11.5 C 146.726,15.177 147.726,17.8436 151.5,19.5C 153.71,20.3509 155.71,21.6843 157.5,23.5C 158.478,23.0233 159.311,22.3567 160,21.5C 160.191,23.7078 160.691,25.7078 161.5,27.5C 164.143,32.3439 166.643,37.3439 169,42.5C 170.039,43.7101 171.206,44.7101 172.5,45.5C 172.848,47.7128 173.681,49.7128 175,51.5C 175.429,49.3313 174.929,47.3313 173.5,45.5C 174.355,44.707 175.189,45.0403 176,46.5C 176.875,49.4011 178.042,52.0677 179.5,54.5C 179.5,58.1667 179.5,61.8333 179.5,65.5C 178.833,64.8333 178.167,64.1667 177.5,63.5C 176.164,61.9897 174.997,60.3231 174,58.5C 173.727,60.1012 173.227,61.6012 172.5,63C 169.672,63.4237 168.339,62.0903 168.5,59C 169.331,55.8919 170.164,56.0585 171,59.5C 171.737,55.9754 170.57,53.3087 167.5,51.5C 166.353,51.8178 165.519,52.4844 165,53.5C 164.503,56.146 164.336,58.8127 164.5,61.5C 165.302,64.5738 166.302,67.5738 167.5,70.5C 166.842,71.3984 166.176,72.3984 165.5,73.5C 160.827,68.491 158.493,62.491 158.5,55.5C 161.096,54.8237 163.096,53.3237 164.5,51C 165.833,50.6667 167.167,50.3333 168.5,50C 167.29,48.9609 166.29,47.7942 165.5,46.5C 163.202,41.2293 160.869,35.896 158.5,30.5C 156.589,29.5233 154.589,28.8567 152.5,28.5C 149.126,24.1245 145.126,20.4578 140.5,17.5C 142.435,16.8505 144.435,16.5172 146.5,16.5C 146.12,14.302 146.787,12.6354 148.5,11.5 Z"/></g>
<g><path style="opacity:1" fill="#79809e" d="M 31.5,0.5 C 32.2389,0.368989 32.9056,0.535656 33.5,1C 32.695,2.11268 32.0283,3.27935 31.5,4.5C 22.2987,19.0815 14.2987,34.4148 7.5,50.5C 5.07798,54.3438 2.41132,58.0105 -0.5,61.5C -0.5,60.8333 -0.5,60.1667 -0.5,59.5C 4.9423,52.3768 8.77563,44.3768 11,35.5C 15.5081,28.441 19.3414,21.1077 22.5,13.5C 25.89,9.44219 28.89,5.10886 31.5,0.5 Z"/></g>
<g><path style="opacity:1" fill="#7a81a1" d="M 11.5,2.5 C 6.90672,11.675 2.90672,21.0083 -0.5,30.5C -0.5,28.1667 -0.5,25.8333 -0.5,23.5C 2.31454,19.2044 4.64788,14.5377 6.5,9.5C 6.04311,8.70245 5.37644,8.36912 4.5,8.5C 5.21862,6.23625 5.55195,3.90291 5.5,1.5C 7.73535,1.20528 9.73535,1.53862 11.5,2.5 Z"/></g>
<g><path style="opacity:1" fill="#717a85" d="M 172.5,21.5 C 174.555,23.5547 176.888,25.2213 179.5,26.5C 179.5,28.8333 179.5,31.1667 179.5,33.5C 176.939,31.3603 174.605,29.027 172.5,26.5C 171.524,25.1851 170.524,23.8518 169.5,22.5C 170.355,21.707 171.189,22.0403 172,23.5C 172.464,22.9056 172.631,22.2389 172.5,21.5 Z"/></g>
<g><path style="opacity:1" fill="#4a515b" d="M 172.5,26.5 C 174.605,29.027 176.939,31.3603 179.5,33.5C 179.5,35.8333 179.5,38.1667 179.5,40.5C 176.529,37.2463 174.029,33.5796 172,29.5C 172.206,32.6061 173.039,35.6061 174.5,38.5C 170.324,34.9684 169.657,30.9684 172.5,26.5 Z"/></g>
<g><path style="opacity:1" fill="#9da1ce" d="M 109.5,22.5 C 109.152,33.6004 106.986,44.267 103,54.5C 102.085,53.6721 101.419,52.6721 101,51.5C 100.07,46.2007 99.4034,40.8673 99,35.5C 97.0709,49.9181 97.5709,64.2514 100.5,78.5C 100.167,79.5 99.8333,80.5 99.5,81.5C 94.0459,76.8651 89.8793,71.1984 87,64.5C 88.3391,71.1787 91.3391,77.1787 96,82.5C 96.7805,83.9437 96.6139,85.277 95.5,86.5C 86.0479,77.6856 79.3813,67.019 75.5,54.5C 73.7035,50.6852 72.3702,46.6852 71.5,42.5C 73.2247,43.278 74.8914,43.6114 76.5,43.5C 78.323,42.2528 80.323,41.5861 82.5,41.5C 83.4633,37.8993 84.13,34.2326 84.5,30.5C 86.3881,31.2751 88.3881,31.2751 90.5,30.5C 90.238,29.0222 90.5713,27.6888 91.5,26.5C 92.8992,29.0537 94.8992,30.7204 97.5,31.5C 97.1774,27.774 97.5108,24.1073 98.5,20.5C 99.7128,23.2798 101.213,25.9464 103,28.5C 104.054,26.2464 105.554,25.913 107.5,27.5C 108.17,25.7086 108.837,24.0419 109.5,22.5 Z"/></g>
<g><path style="opacity:1" fill="#323428" d="M 155.5,0.5 C 158.167,0.5 160.833,0.5 163.5,0.5C 164.207,5.97375 165.207,11.3071 166.5,16.5C 166.335,19.8499 166.502,23.1832 167,26.5C 168.776,32.899 170.609,39.2323 172.5,45.5C 171.206,44.7101 170.039,43.7101 169,42.5C 166.643,37.3439 164.143,32.3439 161.5,27.5C 161.369,26.7611 161.536,26.0944 162,25.5C 162.619,28.0318 163.619,30.3651 165,32.5C 164.361,28.8233 164.527,25.1566 165.5,21.5C 164.975,20.8076 164.308,20.3076 163.5,20C 164.516,19.4806 165.182,18.6473 165.5,17.5C 164.016,13.2355 162.849,8.90218 162,4.5C 161.798,6.2556 161.298,7.92226 160.5,9.5C 158.918,7.9853 157.584,6.31863 156.5,4.5C 156.167,3.16667 155.833,1.83333 155.5,0.5 Z"/></g>
<g><path style="opacity:1" fill="#57535a" d="M 152.5,28.5 C 154.589,28.8567 156.589,29.5233 158.5,30.5C 160.869,35.896 163.202,41.2293 165.5,46.5C 162.547,46.1496 160.213,47.1496 158.5,49.5C 159.254,46.909 160.921,45.0757 163.5,44C 161.372,40.2454 159.372,36.4121 157.5,32.5C 155.581,31.3875 153.914,30.0542 152.5,28.5 Z"/></g>
<g><path style="opacity:1" fill="#c0c6e5" d="M 12.5,1.5 C 13.2389,1.36899 13.9056,1.53566 14.5,2C 12.2555,5.3071 10.7555,8.8071 10,12.5C 11.9472,9.01449 14.2805,8.68116 17,11.5C 17.2501,14.9525 16.9167,18.2858 16,21.5C 17.6826,18.3295 19.8493,15.6628 22.5,13.5C 19.3414,21.1077 15.5081,28.441 11,35.5C 8.77563,44.3768 4.9423,52.3768 -0.5,59.5C -0.5,49.8333 -0.5,40.1667 -0.5,30.5C 2.90672,21.0083 6.90672,11.675 11.5,2.5C 12.1667,2.5 12.5,2.16667 12.5,1.5 Z"/></g>
<g><path style="opacity:1" fill="#8b8db6" d="M 68.5,25.5 C 69.3403,31.1946 70.3403,36.8613 71.5,42.5C 72.3702,46.6852 73.7035,50.6852 75.5,54.5C 74.0337,53.653 73.2004,52.3197 73,50.5C 72.6667,51.1667 72.3333,51.8333 72,52.5C 71,51.1667 70,49.8333 69,48.5C 69.1519,51.447 69.3185,54.447 69.5,57.5C 67.3596,50.6053 65.6929,43.6053 64.5,36.5C 63.2886,27.8412 63.2886,19.1745 64.5,10.5C 64.8494,15.9505 66.1827,20.9505 68.5,25.5 Z"/></g>
<g><path style="opacity:1" fill="#7c7f9b" d="M 179.5,40.5 C 179.5,42.8333 179.5,45.1667 179.5,47.5C 177.565,44.6293 175.899,41.6293 174.5,38.5C 173.039,35.6061 172.206,32.6061 172,29.5C 174.029,33.5796 176.529,37.2463 179.5,40.5 Z"/></g>
<g><path style="opacity:1" fill="#a9aed4" d="M 88.5,0.5 C 91.1667,0.5 93.8333,0.5 96.5,0.5C 97.3597,4.43378 97.693,8.43378 97.5,12.5C 96.5,12.5 95.5,12.5 94.5,12.5C 94.5,11.5 94.5,10.5 94.5,9.5C 92.4305,9.55138 90.5971,8.88472 89,7.5C 86.3592,7.90264 84.0259,8.90264 82,10.5C 81.8726,11.7766 82.3726,12.9433 83.5,14C 83,15.5 82.5,17 82,18.5C 81.3457,17.3044 80.8457,17.3044 80.5,18.5C 81.0525,20.7273 81.0525,23.0607 80.5,25.5C 81.5,25.5 82.5,25.5 83.5,25.5C 83.6287,27.2161 83.962,28.8828 84.5,30.5C 84.13,34.2326 83.4633,37.8993 82.5,41.5C 80.323,41.5861 78.323,42.2528 76.5,43.5C 74.8914,43.6114 73.2247,43.278 71.5,42.5C 70.3403,36.8613 69.3403,31.1946 68.5,25.5C 69.8589,26.0065 70.8589,27.0065 71.5,28.5C 72.3857,27.675 72.719,26.675 72.5,25.5C 73.5,25.5 74.5,25.5 75.5,25.5C 75.3398,23.8008 75.5065,22.1341 76,20.5C 78.4318,17.2146 80.0984,13.5479 81,9.5C 84.7824,7.55238 87.2824,4.55238 88.5,0.5 Z"/></g>
<g><path style="opacity:1" fill="#bfc5d6" d="M 44.5,51.5 C 43.1667,52.8333 41.8333,54.1667 40.5,55.5C 39.1667,55.5 37.8333,55.5 36.5,55.5C 36.9608,51.7878 37.6275,48.1211 38.5,44.5C 40.5441,38.745 43.3775,33.4116 47,28.5C 47.5625,36.3318 46.7291,43.9985 44.5,51.5 Z"/></g>
<g><path style="opacity:1" fill="#8489aa" d="M 54.5,0.5 C 54.8333,0.5 55.1667,0.5 55.5,0.5C 52.9691,17.6444 54.6358,34.311 60.5,50.5C 60.8333,51.8333 61.1667,53.1667 61.5,54.5C 60.1751,53.0474 59.3418,53.3808 59,55.5C 58.3918,53.9336 57.5585,52.6002 56.5,51.5C 55.8333,51.1667 55.1667,50.8333 54.5,50.5C 52.6763,31.9039 50.3429,31.9039 47.5,50.5C 46.391,50.5569 45.391,50.8902 44.5,51.5C 46.7291,43.9985 47.5625,36.3318 47,28.5C 43.3775,33.4116 40.5441,38.745 38.5,44.5C 38.1667,44.5 37.8333,44.5 37.5,44.5C 37.7148,42.8212 37.0481,41.8212 35.5,41.5C 39.8607,34.1494 44.194,26.8161 48.5,19.5C 50.907,13.2796 52.907,6.94626 54.5,0.5 Z"/></g>
<g><path style="opacity:1" fill="#8b8bb1" d="M 144.5,22.5 C 146.902,24.9092 149.569,26.9092 152.5,28.5C 153.914,30.0542 155.581,31.3875 157.5,32.5C 159.372,36.4121 161.372,40.2454 163.5,44C 160.921,45.0757 159.254,46.909 158.5,49.5C 157.833,49.8333 157.167,50.1667 156.5,50.5C 156.663,45.453 156.329,40.453 155.5,35.5C 155.414,34.5041 155.748,33.6708 156.5,33C 150.904,31.2906 146.904,27.7906 144.5,22.5 Z"/></g>
<g><path style="opacity:1" fill="#585150" d="M 166.5,16.5 C 168.5,18.1667 170.5,19.8333 172.5,21.5C 172.631,22.2389 172.464,22.9056 172,23.5C 171.189,22.0403 170.355,21.707 169.5,22.5C 170.524,23.8518 171.524,25.1851 172.5,26.5C 169.657,30.9684 170.324,34.9684 174.5,38.5C 175.899,41.6293 177.565,44.6293 179.5,47.5C 179.5,49.8333 179.5,52.1667 179.5,54.5C 178.042,52.0677 176.875,49.4011 176,46.5C 175.189,45.0403 174.355,44.707 173.5,45.5C 174.929,47.3313 175.429,49.3313 175,51.5C 173.681,49.7128 172.848,47.7128 172.5,45.5C 170.609,39.2323 168.776,32.899 167,26.5C 166.502,23.1832 166.335,19.8499 166.5,16.5 Z"/></g>
<g><path style="opacity:1" fill="#bec2e0" d="M 25.5,51.5 C 19.3983,62.2278 10.7316,70.2278 -0.5,75.5C -0.5,70.8333 -0.5,66.1667 -0.5,61.5C 2.41132,58.0105 5.07798,54.3438 7.5,50.5C 9.47406,48.572 10.9741,46.2387 12,43.5C 12.5,44 13,44.5 13.5,45C 17.4862,45.4988 21.4862,45.6655 25.5,45.5C 25.5,47.5 25.5,49.5 25.5,51.5 Z"/></g>
<g><path style="opacity:1" fill="#a19990" d="M 165.5,46.5 C 166.29,47.7942 167.29,48.9609 168.5,50C 167.167,50.3333 165.833,50.6667 164.5,51C 163.096,53.3237 161.096,54.8237 158.5,55.5C 158.5,53.5 158.5,51.5 158.5,49.5C 160.213,47.1496 162.547,46.1496 165.5,46.5 Z"/></g>
<g><path style="opacity:1" fill="#b08a91" d="M 54.5,50.5 C 52.1667,50.5 49.8333,50.5 47.5,50.5C 50.3429,31.9039 52.6763,31.9039 54.5,50.5 Z"/></g>
<g><path style="opacity:1" fill="#8486b2" d="M 116.5,1.5 C 121.23,14.1229 126.064,26.7896 131,39.5C 133.879,45.7051 137.546,51.3718 142,56.5C 141.333,53.1667 140.667,49.8333 140,46.5C 142.244,50.6541 144.744,54.6541 147.5,58.5C 147.833,55.8333 148.167,53.1667 148.5,50.5C 149.304,40.3562 146.638,31.3562 140.5,23.5C 140.833,22.8333 141.167,22.1667 141.5,21.5C 142.417,22.1272 143.417,22.4606 144.5,22.5C 146.904,27.7906 150.904,31.2906 156.5,33C 155.748,33.6708 155.414,34.5041 155.5,35.5C 153.621,34.6586 151.621,34.3253 149.5,34.5C 150.523,45.8145 150.69,57.1478 150,68.5C 148.939,71.9342 147.439,74.9342 145.5,77.5C 145.47,74.1485 144.137,71.4818 141.5,69.5C 141.167,69.5 140.833,69.5 140.5,69.5C 140.167,68.1667 139.833,66.8333 139.5,65.5C 134.139,57.4444 129.806,48.7777 126.5,39.5C 125.643,38.5748 124.643,37.9081 123.5,37.5C 121.193,25.4388 118.193,13.6055 114.5,2C 115.094,1.53566 115.761,1.36899 116.5,1.5 Z"/></g>
<g><path style="opacity:1" fill="#9c9ccb" d="M 155.5,35.5 C 156.329,40.453 156.663,45.453 156.5,50.5C 156.5,53.1667 156.5,55.8333 156.5,58.5C 155.883,58.6107 155.383,58.944 155,59.5C 153.662,65.6794 151.828,71.6794 149.5,77.5C 147.916,80.4256 145.916,83.0922 143.5,85.5C 142.923,86.7733 142.257,86.7733 141.5,85.5C 142.912,83.8027 143.246,82.136 142.5,80.5C 144.5,80.5 145.5,79.5 145.5,77.5C 147.439,74.9342 148.939,71.9342 150,68.5C 150.69,57.1478 150.523,45.8145 149.5,34.5C 151.621,34.3253 153.621,34.6586 155.5,35.5 Z"/></g>
<g><path style="opacity:1" fill="#18160b" d="M 177.5,63.5 C 177.657,64.8734 177.49,66.2068 177,67.5C 176.676,65.4311 175.842,65.0977 174.5,66.5C 166.788,65.0801 164.788,60.7468 168.5,53.5C 168.167,53.1667 167.833,52.8333 167.5,52.5C 166.182,55.5046 165.182,58.5046 164.5,61.5C 164.336,58.8127 164.503,56.146 165,53.5C 165.519,52.4844 166.353,51.8178 167.5,51.5C 170.57,53.3087 171.737,55.9754 171,59.5C 170.164,56.0585 169.331,55.8919 168.5,59C 168.339,62.0903 169.672,63.4237 172.5,63C 173.227,61.6012 173.727,60.1012 174,58.5C 174.997,60.3231 176.164,61.9897 177.5,63.5 Z"/></g>
<g><path style="opacity:1" fill="#9fa2ca" d="M 64.5,36.5 C 65.6929,43.6053 67.3596,50.6053 69.5,57.5C 71.13,59.0261 71.9633,61.0261 72,63.5C 72.9772,62.2264 73.8106,62.2264 74.5,63.5C 73.8333,63.5 73.5,63.8333 73.5,64.5C 72.9033,64.7352 72.5699,65.2352 72.5,66C 73.8614,68.7296 74.3614,71.5629 74,74.5C 68.5581,68.6132 64.3914,61.9465 61.5,54.5C 61.1667,53.1667 60.8333,51.8333 60.5,50.5C 63.8249,46.6284 65.1582,41.9617 64.5,36.5 Z"/></g>
<g><path style="opacity:1" fill="#d3a2a0" d="M 118.5,51.5 C 118.709,52.9217 119.209,54.255 120,55.5C 124.162,59.1464 127.662,63.1464 130.5,67.5C 129.833,67.5 129.5,67.8333 129.5,68.5C 123.729,67.0086 118.063,67.3419 112.5,69.5C 112.44,68.9569 112.107,68.6236 111.5,68.5C 109.302,71.2433 107.302,71.0767 105.5,68C 106.46,64.27 106.793,60.4367 106.5,56.5C 107.503,50.4911 108.503,44.4911 109.5,38.5C 110.5,38.5 111.5,38.5 112.5,38.5C 113,43.7285 115,48.0618 118.5,51.5 Z"/></g>
<g><path style="opacity:1" fill="#d09fa0" d="M 47.5,50.5 C 49.8333,50.5 52.1667,50.5 54.5,50.5C 55.1667,50.8333 55.8333,51.1667 56.5,51.5C 57.0218,54.5682 57.8551,57.5682 59,60.5C 61.4516,64.0522 63.6183,67.7188 65.5,71.5C 59.7482,69.6448 53.7482,68.9781 47.5,69.5C 47.5,63.1667 47.5,56.8333 47.5,50.5 Z"/></g>
<g><path style="opacity:1" fill="#c29b9e" d="M 139.5,65.5 C 139.833,66.8333 140.167,68.1667 140.5,69.5C 138.088,73.2445 134.755,74.2445 130.5,72.5C 131.309,70.9291 131.643,69.2624 131.5,67.5C 133.17,67.7512 134.67,68.4178 136,69.5C 134.288,64.0789 131.955,58.7456 129,53.5C 128.333,52.5 128.333,51.5 129,50.5C 132.03,55.9164 135.53,60.9164 139.5,65.5 Z"/></g>
<g><path style="opacity:1" fill="#8386ad" d="M 35.5,41.5 C 37.0481,41.8212 37.7148,42.8212 37.5,44.5C 32.3515,54.7973 26.6849,64.7973 20.5,74.5C 22.1916,75.2008 23.8583,74.8675 25.5,73.5C 25.8039,74.1499 26.1373,74.8165 26.5,75.5C 25.3966,75.9976 24.3966,76.3309 23.5,76.5C 24.8532,77.5237 25.5198,78.857 25.5,80.5C 22.9249,81.7284 20.5916,83.3951 18.5,85.5C 16.928,80.5934 16.428,75.5934 17,70.5C 21.7665,65.7907 25.9331,60.624 29.5,55C 29.1667,54.8333 28.8333,54.6667 28.5,54.5C 22.6887,63.4781 15.3554,70.9781 6.5,77C 4.34965,78.4114 2.01632,79.2447 -0.5,79.5C -0.5,78.1667 -0.5,76.8333 -0.5,75.5C 10.7316,70.2278 19.3983,62.2278 25.5,51.5C 28.4729,47.8604 31.8062,44.5271 35.5,41.5 Z"/></g>
<g><path style="opacity:1" fill="#827895" d="M 123.5,37.5 C 124.643,37.9081 125.643,38.5748 126.5,39.5C 129.806,48.7777 134.139,57.4444 139.5,65.5C 135.53,60.9164 132.03,55.9164 129,50.5C 128.333,51.5 128.333,52.5 129,53.5C 131.955,58.7456 134.288,64.0789 136,69.5C 134.67,68.4178 133.17,67.7512 131.5,67.5C 131.167,67.5 130.833,67.5 130.5,67.5C 127.662,63.1464 124.162,59.1464 120,55.5C 119.209,54.255 118.709,52.9217 118.5,51.5C 120.033,53.3548 121.7,55.1881 123.5,57C 124.448,57.4828 125.448,57.6495 126.5,57.5C 126.277,60.1142 127.444,61.7809 130,62.5C 130.464,61.9056 130.631,61.2389 130.5,60.5C 127.392,53.0684 125.059,45.4017 123.5,37.5 Z"/></g>
<g><path style="opacity:1" fill="#27261b" d="M 177.5,63.5 C 178.167,64.1667 178.833,64.8333 179.5,65.5C 179.5,67.5 179.5,69.5 179.5,71.5C 176.921,71.0833 174.754,71.75 173,73.5C 170.251,68.4874 169.418,68.4874 170.5,73.5C 169.833,73.1667 169.167,72.8333 168.5,72.5C 168.672,71.5084 168.338,70.8417 167.5,70.5C 166.302,67.5738 165.302,64.5738 164.5,61.5C 165.182,58.5046 166.182,55.5046 167.5,52.5C 167.833,52.8333 168.167,53.1667 168.5,53.5C 164.788,60.7468 166.788,65.0801 174.5,66.5C 175.842,65.0977 176.676,65.4311 177,67.5C 177.49,66.2068 177.657,64.8734 177.5,63.5 Z"/></g>
<g><path style="opacity:1" fill="#b9bdde" d="M 37.5,44.5 C 37.8333,44.5 38.1667,44.5 38.5,44.5C 37.6275,48.1211 36.9608,51.7878 36.5,55.5C 37.8333,55.5 39.1667,55.5 40.5,55.5C 36.2766,62.0648 31.2766,68.0648 25.5,73.5C 23.8583,74.8675 22.1916,75.2008 20.5,74.5C 26.6849,64.7973 32.3515,54.7973 37.5,44.5 Z"/></g>
<g><path style="opacity:1" fill="#996767" d="M 129.5,68.5 C 129.5,69.1667 129.167,69.5 128.5,69.5C 123.821,69.3342 119.155,69.5008 114.5,70C 113.421,70.956 112.255,71.7894 111,72.5C 110.415,71.0024 110.915,70.0024 112.5,69.5C 118.063,67.3419 123.729,67.0086 129.5,68.5 Z"/></g>
<g><path style="opacity:1" fill="#7d7e9d" d="M 44.5,51.5 C 39.4071,62.0299 33.0738,71.6966 25.5,80.5C 25.5198,78.857 24.8532,77.5237 23.5,76.5C 24.3966,76.3309 25.3966,75.9976 26.5,75.5C 26.1373,74.8165 25.8039,74.1499 25.5,73.5C 31.2766,68.0648 36.2766,62.0648 40.5,55.5C 41.8333,54.1667 43.1667,52.8333 44.5,51.5 Z"/></g>
<g><path style="opacity:1" fill="#8b5d5f" d="M 47.5,69.5 C 53.7482,68.9781 59.7482,69.6448 65.5,71.5C 65.631,72.2389 65.4643,72.9056 65,73.5C 59.2046,70.1213 53.3713,69.788 47.5,72.5C 46.6618,72.1583 46.3284,71.4916 46.5,70.5C 47.1667,70.5 47.5,70.1667 47.5,69.5 Z"/></g>
<g><path style="opacity:1" fill="#5c5559" d="M 158.5,49.5 C 158.5,51.5 158.5,53.5 158.5,55.5C 158.493,62.491 160.827,68.491 165.5,73.5C 166.176,72.3984 166.842,71.3984 167.5,70.5C 168.338,70.8417 168.672,71.5084 168.5,72.5C 168.5,74.1667 168.5,75.8333 168.5,77.5C 169.5,77.5 170.5,77.5 171.5,77.5C 172.074,82.7672 174.741,86.7672 179.5,89.5C 179.5,90.1667 179.5,90.8333 179.5,91.5C 176.167,88.5 172.833,85.5 169.5,82.5C 163.593,75.3524 159.26,67.3524 156.5,58.5C 156.5,55.8333 156.5,53.1667 156.5,50.5C 157.167,50.1667 157.833,49.8333 158.5,49.5 Z"/></g>
<g><path style="opacity:1" fill="#383d28" d="M 179.5,71.5 C 179.5,75.5 179.5,79.5 179.5,83.5C 175.766,80.7689 172.766,77.4356 170.5,73.5C 169.418,68.4874 170.251,68.4874 173,73.5C 174.754,71.75 176.921,71.0833 179.5,71.5 Z"/></g>
<g><path style="opacity:1" fill="#737398" d="M 25.5,80.5 C 22.9875,83.1798 20.6541,86.0132 18.5,89C 21.2182,99.2715 25.8849,108.438 32.5,116.5C 29.0904,114.094 26.4237,111.094 24.5,107.5C 22.9884,103.799 20.9884,100.466 18.5,97.5C 17.4336,95.2986 16.767,92.9653 16.5,90.5C 16.8798,84.579 15.8798,78.9124 13.5,73.5C 9.39746,77.2161 4.7308,79.8827 -0.5,81.5C -0.5,80.8333 -0.5,80.1667 -0.5,79.5C 2.01632,79.2447 4.34965,78.4114 6.5,77C 15.3554,70.9781 22.6887,63.4781 28.5,54.5C 28.8333,54.6667 29.1667,54.8333 29.5,55C 25.9331,60.624 21.7665,65.7907 17,70.5C 16.428,75.5934 16.928,80.5934 18.5,85.5C 20.5916,83.3951 22.9249,81.7284 25.5,80.5 Z"/></g>
<g><path style="opacity:1" fill="#8c777a" d="M 44.5,71.5 C 44.5,71.8333 44.5,72.1667 44.5,72.5C 42.8599,73.3201 41.1932,74.1534 39.5,75C 40.448,75.4828 41.448,75.6495 42.5,75.5C 40.5453,76.9302 38.8786,76.5969 37.5,74.5C 39.7128,73.2271 42.0462,72.2271 44.5,71.5 Z"/></g>
<g><path style="opacity:1" fill="#d4c3c7" d="M 47.5,50.5 C 47.5,56.8333 47.5,63.1667 47.5,69.5C 47.5,70.1667 47.1667,70.5 46.5,70.5C 45.5084,70.3284 44.8417,70.6618 44.5,71.5C 42.0462,72.2271 39.7128,73.2271 37.5,74.5C 36.5178,73.8592 35.5178,73.1925 34.5,72.5C 33.8788,74.9983 34.5455,77.3316 36.5,79.5C 35.1431,81.1856 33.8098,82.8523 32.5,84.5C 30.2075,84.7564 28.0408,84.4231 26,83.5C 25.3333,84.1667 25.3333,84.8333 26,85.5C 29.944,87.1551 30.444,89.4884 27.5,92.5C 26.1851,93.4756 24.8518,94.4756 23.5,95.5C 28.4224,98.0917 32.7557,101.425 36.5,105.5C 41.6036,109.898 47.6036,111.565 54.5,110.5C 53.469,111.249 52.3024,111.915 51,112.5C 50.2938,116.887 50.4604,121.22 51.5,125.5C 49.412,124.061 47.0786,123.394 44.5,123.5C 39.9808,121.964 35.9808,119.631 32.5,116.5C 25.8849,108.438 21.2182,99.2715 18.5,89C 20.6541,86.0132 22.9875,83.1798 25.5,80.5C 33.0738,71.6966 39.4071,62.0299 44.5,51.5C 45.391,50.8902 46.391,50.5569 47.5,50.5 Z"/></g>
<g><path style="opacity:1" fill="#827fa3" d="M 56.5,51.5 C 57.5585,52.6002 58.3918,53.9336 59,55.5C 59.3418,53.3808 60.1751,53.0474 61.5,54.5C 64.3914,61.9465 68.5581,68.6132 74,74.5C 74.3614,71.5629 73.8614,68.7296 72.5,66C 72.5699,65.2352 72.9033,64.7352 73.5,64.5C 76.7197,72.2562 79.8864,79.9229 83,87.5C 76.3976,83.0667 70.5642,77.7334 65.5,71.5C 63.6183,67.7188 61.4516,64.0522 59,60.5C 57.8551,57.5682 57.0218,54.5682 56.5,51.5 Z"/></g>
<g><path style="opacity:1" fill="#150c0c" d="M 46.5,70.5 C 46.3284,71.4916 46.6618,72.1583 47.5,72.5C 48.6354,74.2132 50.302,74.8799 52.5,74.5C 53.1112,76.7746 54.4446,78.4412 56.5,79.5C 50.781,80.7581 45.1144,82.2581 39.5,84C 38.6138,85.6147 37.6138,87.1147 36.5,88.5C 35.5,89.8333 34.5,91.1667 33.5,92.5C 33.8664,90.095 34.5331,87.7617 35.5,85.5C 35.2009,83.1854 34.3675,83.1854 33,85.5C 32.6012,85.2716 32.4346,84.9382 32.5,84.5C 33.8098,82.8523 35.1431,81.1856 36.5,79.5C 34.5455,77.3316 33.8788,74.9983 34.5,72.5C 35.5178,73.1925 36.5178,73.8592 37.5,74.5C 38.8786,76.5969 40.5453,76.9302 42.5,75.5C 44.0481,75.1788 44.7148,74.1788 44.5,72.5C 44.5,72.1667 44.5,71.8333 44.5,71.5C 44.8417,70.6618 45.5084,70.3284 46.5,70.5 Z"/></g>
<g><path style="opacity:1" fill="#ebd9da" d="M 44.5,72.5 C 44.7148,74.1788 44.0481,75.1788 42.5,75.5C 41.448,75.6495 40.448,75.4828 39.5,75C 41.1932,74.1534 42.8599,73.3201 44.5,72.5 Z"/></g>
<g><path style="opacity:1" fill="#d6acad" d="M 106.5,56.5 C 106.793,60.4367 106.46,64.27 105.5,68C 107.302,71.0767 109.302,71.2433 111.5,68.5C 112.107,68.6236 112.44,68.9569 112.5,69.5C 110.915,70.0024 110.415,71.0024 111,72.5C 112.255,71.7894 113.421,70.956 114.5,70C 119.155,69.5008 123.821,69.3342 128.5,69.5C 127.599,71.7271 125.933,72.7271 123.5,72.5C 117.298,73.1006 111.965,75.6006 107.5,80C 108.167,80.3333 108.833,80.6667 109.5,81C 108.619,81.7083 107.953,82.5416 107.5,83.5C 106.733,84.172 106.066,85.0053 105.5,86C 107.578,87.2697 107.912,88.7697 106.5,90.5C 101.342,79.2067 101.342,67.8733 106.5,56.5 Z"/></g>
<g><path style="opacity:1" fill="#391719" d="M 123.5,72.5 C 123.5,73.8333 123.5,75.1667 123.5,76.5C 122.127,76.3433 120.793,76.51 119.5,77C 122.036,77.1862 124.369,77.6862 126.5,78.5C 119.539,77.6488 113.539,79.6488 108.5,84.5C 107.893,84.3764 107.56,84.0431 107.5,83.5C 107.953,82.5416 108.619,81.7083 109.5,81C 108.833,80.6667 108.167,80.3333 107.5,80C 111.965,75.6006 117.298,73.1006 123.5,72.5 Z"/></g>
<g><path style="opacity:1" fill="#190c10" d="M 130.5,67.5 C 130.833,67.5 131.167,67.5 131.5,67.5C 131.643,69.2624 131.309,70.9291 130.5,72.5C 134.755,74.2445 138.088,73.2445 140.5,69.5C 140.833,69.5 141.167,69.5 141.5,69.5C 141.145,72.0667 140.479,74.5667 139.5,77C 139.978,78.6424 140.978,79.8091 142.5,80.5C 143.246,82.136 142.912,83.8027 141.5,85.5C 142.257,86.7733 142.923,86.7733 143.5,85.5C 144.167,85.5 144.5,85.8333 144.5,86.5C 143.972,87.7206 143.305,88.8873 142.5,90C 143.554,91.3876 143.72,92.8876 143,94.5C 142.722,93.5842 142.222,92.9175 141.5,92.5C 139.06,85.0589 134.06,80.3922 126.5,78.5C 124.369,77.6862 122.036,77.1862 119.5,77C 120.793,76.51 122.127,76.3433 123.5,76.5C 123.5,75.1667 123.5,73.8333 123.5,72.5C 125.933,72.7271 127.599,71.7271 128.5,69.5C 129.167,69.5 129.5,69.1667 129.5,68.5C 129.5,67.8333 129.833,67.5 130.5,67.5 Z"/></g>
<g><path style="opacity:1" fill="#caa0a2" d="M 141.5,69.5 C 144.137,71.4818 145.47,74.1485 145.5,77.5C 145.5,79.5 144.5,80.5 142.5,80.5C 140.978,79.8091 139.978,78.6424 139.5,77C 140.479,74.5667 141.145,72.0667 141.5,69.5 Z"/></g>
<g><path style="opacity:1" fill="#8889b3" d="M 156.5,58.5 C 159.26,67.3524 163.593,75.3524 169.5,82.5C 168.542,84.3024 167.875,86.3024 167.5,88.5C 166.833,90.1667 166.167,91.8333 165.5,93.5C 158.912,79.7856 154.246,80.4523 151.5,95.5C 151.867,88.9622 153.201,82.6289 155.5,76.5C 153.243,75.2302 151.243,75.5636 149.5,77.5C 151.828,71.6794 153.662,65.6794 155,59.5C 155.383,58.944 155.883,58.6107 156.5,58.5 Z"/></g>
<g><path style="opacity:1" fill="#371418" d="M 52.5,74.5 C 58.6578,75.1671 64.3245,77.3337 69.5,81C 68.6919,81.3076 68.0253,81.8076 67.5,82.5C 68.6872,83.5195 69.6872,84.6861 70.5,86C 70.2716,86.3988 69.9382,86.5654 69.5,86.5C 65.8212,83.1617 61.4879,81.1617 56.5,80.5C 56.5,80.1667 56.5,79.8333 56.5,79.5C 54.4446,78.4412 53.1112,76.7746 52.5,74.5 Z"/></g>
<g><path style="opacity:1" fill="#7a7393" d="M 151.5,95.5 C 151.5,96.1667 151.167,96.5 150.5,96.5C 150.5,95.1667 150.5,93.8333 150.5,92.5C 150.167,91.8333 149.833,91.1667 149.5,90.5C 151.415,87.0672 151.748,83.4005 150.5,79.5C 148.395,81.5916 146.728,83.9249 145.5,86.5C 145.167,86.5 144.833,86.5 144.5,86.5C 144.5,85.8333 144.167,85.5 143.5,85.5C 145.916,83.0922 147.916,80.4256 149.5,77.5C 151.243,75.5636 153.243,75.2302 155.5,76.5C 153.201,82.6289 151.867,88.9622 151.5,95.5 Z"/></g>
<g><path style="opacity:1" fill="#8185ac" d="M 16.5,90.5 C 14.7855,87.6975 13.4521,84.6975 12.5,81.5C 8.02228,81.8816 3.68895,82.8816 -0.5,84.5C -0.5,83.5 -0.5,82.5 -0.5,81.5C 4.7308,79.8827 9.39746,77.2161 13.5,73.5C 15.8798,78.9124 16.8798,84.579 16.5,90.5 Z"/></g>
<g><path style="opacity:1" fill="#1e342b" d="M 56.5,79.5 C 56.5,79.8333 56.5,80.1667 56.5,80.5C 55.448,80.3505 54.448,80.5172 53.5,81C 56.5714,84.2349 57.9047,88.0682 57.5,92.5C 57.4828,94.5648 57.1495,96.5648 56.5,98.5C 55.8333,98.5 55.5,98.8333 55.5,99.5C 55.1667,99.5 54.8333,99.5 54.5,99.5C 54.5,98.8333 54.5,98.1667 54.5,97.5C 55.404,96.791 55.7373,95.791 55.5,94.5C 55.627,91.755 54.4603,89.755 52,88.5C 50.9887,89.3366 49.8221,89.67 48.5,89.5C 47.9326,88.5798 48.5992,88.2465 50.5,88.5C 50.5,87.5 50.5,86.5 50.5,85.5C 48.8333,85.5 47.1667,85.5 45.5,85.5C 45.44,84.9569 45.1067,84.6236 44.5,84.5C 42.0447,86.2967 39.378,87.63 36.5,88.5C 37.6138,87.1147 38.6138,85.6147 39.5,84C 45.1144,82.2581 50.781,80.7581 56.5,79.5 Z"/></g>
<g><path style="opacity:1" fill="#8383ac" d="M 130.5,60.5 C 130.631,61.2389 130.464,61.9056 130,62.5C 127.444,61.7809 126.277,60.1142 126.5,57.5C 125.448,57.6495 124.448,57.4828 123.5,57C 121.7,55.1881 120.033,53.3548 118.5,51.5C 115,48.0618 113,43.7285 112.5,38.5C 111.5,38.5 110.5,38.5 109.5,38.5C 108.503,44.4911 107.503,50.4911 106.5,56.5C 101.342,67.8733 101.342,79.2067 106.5,90.5C 106.328,91.4916 106.662,92.1583 107.5,92.5C 107.833,93.8333 108.167,95.1667 108.5,96.5C 92.5869,90.2541 81.2536,79.2541 74.5,63.5C 73.8106,62.2264 72.9772,62.2264 72,63.5C 71.9633,61.0261 71.13,59.0261 69.5,57.5C 69.3185,54.447 69.1519,51.447 69,48.5C 70,49.8333 71,51.1667 72,52.5C 72.3333,51.8333 72.6667,51.1667 73,50.5C 73.2004,52.3197 74.0337,53.653 75.5,54.5C 79.3813,67.019 86.0479,77.6856 95.5,86.5C 96.6139,85.277 96.7805,83.9437 96,82.5C 91.3391,77.1787 88.3391,71.1787 87,64.5C 89.8793,71.1984 94.0459,76.8651 99.5,81.5C 99.8333,80.5 100.167,79.5 100.5,78.5C 97.5709,64.2514 97.0709,49.9181 99,35.5C 99.4034,40.8673 100.07,46.2007 101,51.5C 101.419,52.6721 102.085,53.6721 103,54.5C 106.986,44.267 109.152,33.6004 109.5,22.5C 109.334,17.8215 109.501,13.1548 110,8.5C 112.321,18.7582 114.321,29.0915 116,39.5C 119.496,47.4839 124.33,54.4839 130.5,60.5 Z"/></g>
<g><path style="opacity:1" fill="#d6a6a4" d="M 149.5,90.5 C 147.833,89.5 146.5,88.1667 145.5,86.5C 146.728,83.9249 148.395,81.5916 150.5,79.5C 151.748,83.4005 151.415,87.0672 149.5,90.5 Z"/></g>
<g><path style="opacity:1" fill="#bcc3e0" d="M 16.5,90.5 C 16.767,92.9653 17.4336,95.2986 18.5,97.5C 15.7905,98.4832 13.1238,98.6498 10.5,98C 8.98252,99.6851 7.31585,101.185 5.5,102.5C 6.30937,104.071 6.64271,105.738 6.5,107.5C 5.83333,107.167 5.16667,106.833 4.5,106.5C 3.08343,103.331 1.41677,100.331 -0.5,97.5C -0.5,93.1667 -0.5,88.8333 -0.5,84.5C 3.68895,82.8816 8.02228,81.8816 12.5,81.5C 13.4521,84.6975 14.7855,87.6975 16.5,90.5 Z"/></g>
<g><path style="opacity:1" fill="#aea1b0" d="M 126.5,78.5 C 134.06,80.3922 139.06,85.0589 141.5,92.5C 141.5,93.8333 141.5,95.1667 141.5,96.5C 140.833,96.5 140.167,96.5 139.5,96.5C 139.741,94.1016 139.074,92.1016 137.5,90.5C 136.075,86.6961 133.242,85.0294 129,85.5C 124.506,85.8284 121.006,87.8284 118.5,91.5C 114.629,91.185 110.962,91.5184 107.5,92.5C 106.662,92.1583 106.328,91.4916 106.5,90.5C 107.912,88.7697 107.578,87.2697 105.5,86C 106.066,85.0053 106.733,84.172 107.5,83.5C 107.56,84.0431 107.893,84.3764 108.5,84.5C 113.539,79.6488 119.539,77.6488 126.5,78.5 Z"/></g>
<g><path style="opacity:1" fill="#6d695c" d="M 168.5,72.5 C 169.167,72.8333 169.833,73.1667 170.5,73.5C 172.766,77.4356 175.766,80.7689 179.5,83.5C 179.5,85.5 179.5,87.5 179.5,89.5C 174.741,86.7672 172.074,82.7672 171.5,77.5C 170.5,77.5 169.5,77.5 168.5,77.5C 168.5,75.8333 168.5,74.1667 168.5,72.5 Z"/></g>
<g><path style="opacity:1" fill="#0d1617" d="M 137.5,90.5 C 132.147,87.8301 126.813,87.9968 121.5,91C 120.107,92.1711 119.273,93.6711 119,95.5C 118.536,94.9056 118.369,94.2389 118.5,93.5C 118.5,92.8333 118.5,92.1667 118.5,91.5C 121.006,87.8284 124.506,85.8284 129,85.5C 133.242,85.0294 136.075,86.6961 137.5,90.5 Z"/></g>
<g><path style="opacity:1" fill="#ada3ae" d="M 56.5,80.5 C 61.4879,81.1617 65.8212,83.1617 69.5,86.5C 69.7947,88.7354 69.4614,90.7354 68.5,92.5C 64.8333,92.5 61.1667,92.5 57.5,92.5C 57.9047,88.0682 56.5714,84.2349 53.5,81C 54.448,80.5172 55.448,80.3505 56.5,80.5 Z"/></g>
<g><path style="opacity:1" fill="#30141a" d="M 32.5,84.5 C 32.4346,84.9382 32.6012,85.2716 33,85.5C 34.3675,83.1854 35.2009,83.1854 35.5,85.5C 34.5331,87.7617 33.8664,90.095 33.5,92.5C 33.5,93.1667 33.5,93.8333 33.5,94.5C 32.71,95.6085 32.21,96.9419 32,98.5C 31.5045,96.5273 31.3379,94.5273 31.5,92.5C 29.8612,92.9258 28.5279,92.9258 27.5,92.5C 30.444,89.4884 29.944,87.1551 26,85.5C 25.3333,84.8333 25.3333,84.1667 26,83.5C 28.0408,84.4231 30.2075,84.7564 32.5,84.5 Z"/></g>
<g><path style="opacity:1" fill="#304d40" d="M 45.5,85.5 C 46.1099,88.637 44.7766,90.9703 41.5,92.5C 39.8624,93.7046 39.5291,95.0379 40.5,96.5C 40.5,96.8333 40.5,97.1667 40.5,97.5C 39.5041,97.5858 38.6708,97.2524 38,96.5C 37.7679,97.7375 37.2679,98.7375 36.5,99.5C 35.7368,97.6316 34.7368,95.9649 33.5,94.5C 33.5,93.8333 33.5,93.1667 33.5,92.5C 34.5,91.1667 35.5,89.8333 36.5,88.5C 39.378,87.63 42.0447,86.2967 44.5,84.5C 45.1067,84.6236 45.44,84.9569 45.5,85.5 Z"/></g>
<g><path style="opacity:1" fill="#ddadb0" d="M 74.5,63.5 C 81.2536,79.2541 92.5869,90.2541 108.5,96.5C 109.527,103.527 113.527,107.527 120.5,108.5C 121.167,108.5 121.833,108.5 122.5,108.5C 128.398,109.698 133.065,108.032 136.5,103.5C 137.167,103.5 137.833,103.5 138.5,103.5C 137.402,104.397 137.402,105.23 138.5,106C 134.526,108.544 130.193,110.044 125.5,110.5C 125.745,115.021 128.078,117.021 132.5,116.5C 132.998,119.487 133.498,122.487 134,125.5C 134.671,124.748 135.504,124.414 136.5,124.5C 134.856,126.481 133.19,128.481 131.5,130.5C 132.243,131.182 132.909,131.849 133.5,132.5C 132.5,133.833 131.5,135.167 130.5,136.5C 122.352,141.907 113.686,146.241 104.5,149.5C 99.547,150.988 94.547,152.322 89.5,153.5C 83.5785,152.688 77.9118,151.355 72.5,149.5C 73.2389,149.631 73.9056,149.464 74.5,149C 65.2375,142.573 57.5708,134.739 51.5,125.5C 50.4604,121.22 50.2938,116.887 51,112.5C 52.3024,111.915 53.469,111.249 54.5,110.5C 54.8333,110.5 55.1667,110.5 55.5,110.5C 66.1109,108.905 70.4443,102.905 68.5,92.5C 69.4614,90.7354 69.7947,88.7354 69.5,86.5C 69.9382,86.5654 70.2716,86.3988 70.5,86C 69.6872,84.6861 68.6872,83.5195 67.5,82.5C 68.0253,81.8076 68.6919,81.3076 69.5,81C 64.3245,77.3337 58.6578,75.1671 52.5,74.5C 50.302,74.8799 48.6354,74.2132 47.5,72.5C 53.3713,69.788 59.2046,70.1213 65,73.5C 65.4643,72.9056 65.631,72.2389 65.5,71.5C 70.5642,77.7334 76.3976,83.0667 83,87.5C 79.8864,79.9229 76.7197,72.2562 73.5,64.5C 73.5,63.8333 73.8333,63.5 74.5,63.5 Z"/></g>
<g><path style="opacity:1" fill="#223c34" d="M 137.5,90.5 C 139.074,92.1016 139.741,94.1016 139.5,96.5C 138.659,98.3792 138.325,100.379 138.5,102.5C 138.5,102.833 138.5,103.167 138.5,103.5C 137.833,103.5 137.167,103.5 136.5,103.5C 135.833,102.167 135.167,100.833 134.5,99.5C 132.924,98.7168 131.591,97.5501 130.5,96C 131.91,95.6322 132.91,94.7989 133.5,93.5C 131.955,92.5481 130.288,92.2148 128.5,92.5C 123.697,92.0901 122.697,93.5901 125.5,97C 123.137,97.5885 122.137,99.0885 122.5,101.5C 121.64,103.288 120.64,104.955 119.5,106.5C 117.369,102.208 117.035,97.8746 118.5,93.5C 118.369,94.2389 118.536,94.9056 119,95.5C 119.273,93.6711 120.107,92.1711 121.5,91C 126.813,87.9968 132.147,87.8301 137.5,90.5 Z"/></g>
<g><path style="opacity:1" fill="#747aa9" d="M 167.5,88.5 C 167.328,89.4916 167.662,90.1583 168.5,90.5C 166.077,100.846 161.41,110.013 154.5,118C 154.957,118.414 155.291,118.914 155.5,119.5C 154.125,121.376 152.958,123.376 152,125.5C 151.854,136.525 149.854,147.192 146,157.5C 144.974,160.239 143.474,162.572 141.5,164.5C 148.034,151.607 150.534,137.94 149,123.5C 146.842,125.494 144.342,126.828 141.5,127.5C 153.786,119.211 161.786,107.877 165.5,93.5C 166.167,91.8333 166.833,90.1667 167.5,88.5 Z"/></g>
<g><path style="opacity:1" fill="#c7e3cc" d="M 45.5,85.5 C 47.1667,85.5 48.8333,85.5 50.5,85.5C 50.5,86.5 50.5,87.5 50.5,88.5C 48.5992,88.2465 47.9326,88.5798 48.5,89.5C 48.5,90.8333 49.1667,91.5 50.5,91.5C 50.6107,92.1174 50.944,92.6174 51.5,93C 49.4148,94.0414 47.7481,95.5414 46.5,97.5C 44.4301,96.0971 42.7635,94.4304 41.5,92.5C 44.7766,90.9703 46.1099,88.637 45.5,85.5 Z"/></g>
<g><path style="opacity:1" fill="#2d503c" d="M 55.5,94.5 C 54.5416,94.9528 53.7083,95.6195 53,96.5C 52.9504,94.256 52.1171,92.5893 50.5,91.5C 49.1667,91.5 48.5,90.8333 48.5,89.5C 49.8221,89.67 50.9887,89.3366 52,88.5C 54.4603,89.755 55.627,91.755 55.5,94.5 Z"/></g>
<g><path style="opacity:1" fill="#4d2429" d="M 27.5,92.5 C 28.5279,92.9258 29.8612,92.9258 31.5,92.5C 31.3379,94.5273 31.5045,96.5273 32,98.5C 32.21,96.9419 32.71,95.6085 33.5,94.5C 33.3367,96.8568 33.5034,99.1902 34,101.5C 35.4813,102.471 36.3146,103.804 36.5,105.5C 32.7557,101.425 28.4224,98.0917 23.5,95.5C 24.8518,94.4756 26.1851,93.4756 27.5,92.5 Z"/></g>
<g><path style="opacity:1" fill="#ded9ef" d="M 57.5,92.5 C 61.1667,92.5 64.8333,92.5 68.5,92.5C 70.4443,102.905 66.1109,108.905 55.5,110.5C 53.0521,109.527 50.3854,109.194 47.5,109.5C 47.281,108.325 47.6143,107.325 48.5,106.5C 52.9156,105.418 55.5823,102.752 56.5,98.5C 57.1495,96.5648 57.4828,94.5648 57.5,92.5 Z"/></g>
<g><path style="opacity:1" fill="#436052" d="M 128.5,92.5 C 129.11,95.637 127.777,97.9703 124.5,99.5C 123.833,100.167 123.167,100.833 122.5,101.5C 122.137,99.0885 123.137,97.5885 125.5,97C 122.697,93.5901 123.697,92.0901 128.5,92.5 Z"/></g>
<g><path style="opacity:1" fill="#4d1c25" d="M 144.5,86.5 C 144.833,86.5 145.167,86.5 145.5,86.5C 146.5,88.1667 147.833,89.5 149.5,90.5C 149.833,91.1667 150.167,91.8333 150.5,92.5C 149.508,92.3284 148.842,92.6618 148.5,93.5C 145.911,94.4194 143.911,96.086 142.5,98.5C 141.662,98.1583 141.328,97.4916 141.5,96.5C 141.5,95.1667 141.5,93.8333 141.5,92.5C 142.222,92.9175 142.722,93.5842 143,94.5C 143.72,92.8876 143.554,91.3876 142.5,90C 143.305,88.8873 143.972,87.7206 144.5,86.5 Z"/></g>
<g><path style="opacity:1" fill="#88aa8d" d="M 50.5,91.5 C 52.1171,92.5893 52.9504,94.256 53,96.5C 53.7083,95.6195 54.5416,94.9528 55.5,94.5C 55.7373,95.791 55.404,96.791 54.5,97.5C 52.857,97.5198 51.5237,96.8532 50.5,95.5C 48.0946,100.543 45.4279,100.71 42.5,96C 41.5632,95.3083 40.8966,95.475 40.5,96.5C 39.5291,95.0379 39.8624,93.7046 41.5,92.5C 42.7635,94.4304 44.4301,96.0971 46.5,97.5C 47.7481,95.5414 49.4148,94.0414 51.5,93C 50.944,92.6174 50.6107,92.1174 50.5,91.5 Z"/></g>
<g><path style="opacity:1" fill="#dcd9ec" d="M 118.5,91.5 C 118.5,92.1667 118.5,92.8333 118.5,93.5C 117.035,97.8746 117.369,102.208 119.5,106.5C 119.833,107.167 120.167,107.833 120.5,108.5C 113.527,107.527 109.527,103.527 108.5,96.5C 108.167,95.1667 107.833,93.8333 107.5,92.5C 110.962,91.5184 114.629,91.185 118.5,91.5 Z"/></g>
<g><path style="opacity:1" fill="#7f677b" d="M 148.5,93.5 C 148.842,92.6618 149.508,92.3284 150.5,92.5C 150.5,93.8333 150.5,95.1667 150.5,96.5C 150.067,101.973 148.9,107.306 147,112.5C 145.357,115.961 143.19,118.961 140.5,121.5C 145.3,113.373 148.3,104.54 149.5,95C 149.43,94.2352 149.097,93.7352 148.5,93.5 Z"/></g>
<g><path style="opacity:1" fill="#9e9ecd" d="M 165.5,93.5 C 161.786,107.877 153.786,119.211 141.5,127.5C 140.391,127.557 139.391,127.89 138.5,128.5C 136.833,129.833 135.167,131.167 133.5,132.5C 132.909,131.849 132.243,131.182 131.5,130.5C 133.19,128.481 134.856,126.481 136.5,124.5C 137.833,123.5 139.167,122.5 140.5,121.5C 143.19,118.961 145.357,115.961 147,112.5C 148.9,107.306 150.067,101.973 150.5,96.5C 151.167,96.5 151.5,96.1667 151.5,95.5C 154.246,80.4523 158.912,79.7856 165.5,93.5 Z"/></g>
<g><path style="opacity:1" fill="#c7e2c8" d="M 128.5,92.5 C 130.288,92.2148 131.955,92.5481 133.5,93.5C 132.91,94.7989 131.91,95.6322 130.5,96C 131.591,97.5501 132.924,98.7168 134.5,99.5C 132.673,100.932 131.006,102.599 129.5,104.5C 128.358,103.174 127.024,102.174 125.5,101.5C 124.662,101.158 124.328,100.492 124.5,99.5C 127.777,97.9703 129.11,95.637 128.5,92.5 Z"/></g>
<g><path style="opacity:1" fill="#6e8c79" d="M 124.5,99.5 C 124.328,100.492 124.662,101.158 125.5,101.5C 124.909,102.151 124.243,102.818 123.5,103.5C 123.709,104.086 124.043,104.586 124.5,105C 121.81,105.335 121.143,106.501 122.5,108.5C 121.833,108.5 121.167,108.5 120.5,108.5C 120.167,107.833 119.833,107.167 119.5,106.5C 120.64,104.955 121.64,103.288 122.5,101.5C 123.167,100.833 123.833,100.167 124.5,99.5 Z"/></g>
<g><path style="opacity:1" fill="#564b46" d="M 139.5,96.5 C 140.167,96.5 140.833,96.5 141.5,96.5C 141.328,97.4916 141.662,98.1583 142.5,98.5C 141.5,100.167 140.167,101.5 138.5,102.5C 138.325,100.379 138.659,98.3792 139.5,96.5 Z"/></g>
<g><path style="opacity:1" fill="#678377" d="M 40.5,97.5 C 41.525,97.8966 41.6917,98.5632 41,99.5C 40.1072,98.2888 39.2739,98.2888 38.5,99.5C 39.5244,100.852 40.5244,102.185 41.5,103.5C 39.2512,102.92 37.5846,101.587 36.5,99.5C 37.2679,98.7375 37.7679,97.7375 38,96.5C 38.6708,97.2524 39.5041,97.5858 40.5,97.5 Z"/></g>
<g><path style="opacity:1" fill="#bad9b3" d="M 54.5,97.5 C 54.5,98.1667 54.5,98.8333 54.5,99.5C 50.9273,103.002 46.5939,104.336 41.5,103.5C 40.5244,102.185 39.5244,100.852 38.5,99.5C 39.2739,98.2888 40.1072,98.2888 41,99.5C 41.6917,98.5632 41.525,97.8966 40.5,97.5C 40.5,97.1667 40.5,96.8333 40.5,96.5C 40.8966,95.475 41.5632,95.3083 42.5,96C 45.4279,100.71 48.0946,100.543 50.5,95.5C 51.5237,96.8532 52.857,97.5198 54.5,97.5 Z"/></g>
<g><path style="opacity:1" fill="#c2c7db" d="M 18.5,97.5 C 20.9884,100.466 22.9884,103.799 24.5,107.5C 22.3898,111.884 19.0565,114.884 14.5,116.5C 11.0969,114.1 8.4302,111.1 6.5,107.5C 6.64271,105.738 6.30937,104.071 5.5,102.5C 7.31585,101.185 8.98252,99.6851 10.5,98C 13.1238,98.6498 15.7905,98.4832 18.5,97.5 Z"/></g>
<g><path style="opacity:1" fill="#e1e1ed" d="M 33.5,94.5 C 34.7368,95.9649 35.7368,97.6316 36.5,99.5C 37.5846,101.587 39.2512,102.92 41.5,103.5C 47.1452,105.684 51.8118,104.351 55.5,99.5C 55.5,98.8333 55.8333,98.5 56.5,98.5C 55.5823,102.752 52.9156,105.418 48.5,106.5C 47.6143,107.325 47.281,108.325 47.5,109.5C 50.3854,109.194 53.0521,109.527 55.5,110.5C 55.1667,110.5 54.8333,110.5 54.5,110.5C 47.6036,111.565 41.6036,109.898 36.5,105.5C 36.3146,103.804 35.4813,102.471 34,101.5C 33.5034,99.1902 33.3367,96.8568 33.5,94.5 Z"/></g>
<g><path style="opacity:1" fill="#7e8f81" d="M 54.5,99.5 C 54.8333,99.5 55.1667,99.5 55.5,99.5C 51.8118,104.351 47.1452,105.684 41.5,103.5C 46.5939,104.336 50.9273,103.002 54.5,99.5 Z"/></g>
<g><path style="opacity:1" fill="#b0cdae" d="M 134.5,99.5 C 135.167,100.833 135.833,102.167 136.5,103.5C 133.065,108.032 128.398,109.698 122.5,108.5C 121.143,106.501 121.81,105.335 124.5,105C 124.043,104.586 123.709,104.086 123.5,103.5C 124.243,102.818 124.909,102.151 125.5,101.5C 127.024,102.174 128.358,103.174 129.5,104.5C 131.006,102.599 132.673,100.932 134.5,99.5 Z"/></g>
<g><path style="opacity:1" fill="#d8a2a1" d="M 148.5,93.5 C 149.097,93.7352 149.43,94.2352 149.5,95C 148.3,104.54 145.3,113.373 140.5,121.5C 139.167,122.5 137.833,123.5 136.5,124.5C 135.504,124.414 134.671,124.748 134,125.5C 133.498,122.487 132.998,119.487 132.5,116.5C 128.078,117.021 125.745,115.021 125.5,110.5C 130.193,110.044 134.526,108.544 138.5,106C 137.402,105.23 137.402,104.397 138.5,103.5C 138.5,103.167 138.5,102.833 138.5,102.5C 140.167,101.5 141.5,100.167 142.5,98.5C 143.911,96.086 145.911,94.4194 148.5,93.5 Z"/></g>
<g><path style="opacity:1" fill="#c7a8b0" d="M 179.5,109.5 C 179.5,113.833 179.5,118.167 179.5,122.5C 178.307,122.03 177.64,121.03 177.5,119.5C 176.693,112.104 175.859,104.77 175,97.5C 176.231,101.704 177.731,105.704 179.5,109.5 Z"/></g>
<g><path style="opacity:1" fill="#9ca2c9" d="M 24.5,107.5 C 26.4237,111.094 29.0904,114.094 32.5,116.5C 35.9808,119.631 39.9808,121.964 44.5,123.5C 46.4346,124.81 48.4346,126.143 50.5,127.5C 49.2342,128.362 47.9008,129.029 46.5,129.5C 41.7279,128.129 36.7279,127.296 31.5,127C 26.8333,124.667 22.1667,122.333 17.5,120C 16.2899,118.961 15.2899,117.794 14.5,116.5C 19.0565,114.884 22.3898,111.884 24.5,107.5 Z"/></g>
<g><path style="opacity:1" fill="#9c9ece" d="M 154.5,179.5 C 150.833,179.5 147.167,179.5 143.5,179.5C 148.676,169.168 154.509,159.168 161,149.5C 162.914,146.702 163.914,143.702 164,140.5C 159.252,148.999 154.252,157.332 149,165.5C 144.934,169.077 140.768,172.411 136.5,175.5C 134.506,176.35 132.506,176.85 130.5,177C 131.571,176.148 132.571,175.315 133.5,174.5C 137.3,172.037 139.967,168.704 141.5,164.5C 143.474,162.572 144.974,160.239 146,157.5C 149.854,147.192 151.854,136.525 152,125.5C 152.958,123.376 154.125,121.376 155.5,119.5C 155.291,118.914 154.957,118.414 154.5,118C 161.41,110.013 166.077,100.846 168.5,90.5C 169.346,98.4197 169.846,107.086 170,116.5C 171.124,110.897 171.79,105.231 172,99.5C 179.003,121.813 177.337,143.48 167,164.5C 162.825,169.531 158.659,174.531 154.5,179.5 Z"/></g>
<g><path style="opacity:1" fill="#8588b3" d="M -0.5,97.5 C 1.41677,100.331 3.08343,103.331 4.5,106.5C 3.42463,105.438 2.42463,105.438 1.5,106.5C 6.95598,115.626 14.2893,122.626 23.5,127.5C 23.5,127.833 23.5,128.167 23.5,128.5C 21.8947,127.031 21.3947,127.365 22,129.5C 24.8421,133.197 27.6754,136.863 30.5,140.5C 26.7375,138.587 23.0709,136.421 19.5,134C 17.0087,130.51 14.1754,127.343 11,124.5C 10.3333,125.5 10.3333,126.5 11,127.5C 13.6391,131.639 16.4724,135.639 19.5,139.5C 18.9984,140.521 18.3317,140.688 17.5,140C 14.9988,136.333 11.9988,133.166 8.5,130.5C 5.48062,124.461 2.48062,118.461 -0.5,112.5C -0.5,107.5 -0.5,102.5 -0.5,97.5 Z"/></g>
<g><path style="opacity:1" fill="#c0c5da" d="M -0.5,112.5 C 2.48062,118.461 5.48062,124.461 8.5,130.5C 7.57178,133.736 6.23845,136.736 4.5,139.5C 3.07127,136.304 1.4046,133.304 -0.5,130.5C -0.5,124.5 -0.5,118.5 -0.5,112.5 Z"/></g>
<g><path style="opacity:1" fill="#dbd0d6" d="M 44.5,123.5 C 47.0786,123.394 49.412,124.061 51.5,125.5C 57.5708,134.739 65.2375,142.573 74.5,149C 73.9056,149.464 73.2389,149.631 72.5,149.5C 71.1667,149.5 69.8333,149.5 68.5,149.5C 57.4711,146.652 47.4711,141.652 38.5,134.5C 38.0472,133.542 37.3805,132.708 36.5,132C 40.1325,131.851 43.4659,131.018 46.5,129.5C 47.9008,129.029 49.2342,128.362 50.5,127.5C 48.4346,126.143 46.4346,124.81 44.5,123.5 Z"/></g>
<g><path style="opacity:1" fill="#6c647f" d="M 138.5,128.5 C 136.833,132.167 134.167,134.833 130.5,136.5C 131.5,135.167 132.5,133.833 133.5,132.5C 135.167,131.167 136.833,129.833 138.5,128.5 Z"/></g>
<g><path style="opacity:1" fill="#999bc8" d="M 30.5,140.5 C 39.2994,150.484 49.7994,158.151 62,163.5C 63.0378,161.532 62.2044,159.866 59.5,158.5C 59.4894,156.983 58.8228,155.816 57.5,155C 58.549,154.508 59.549,154.674 60.5,155.5C 61.1497,153.816 62.1497,152.483 63.5,151.5C 65.9118,151.694 66.9118,153.027 66.5,155.5C 65.1266,155.343 63.7932,155.51 62.5,156C 61.5494,156.718 61.3828,157.551 62,158.5C 65.7436,157.374 69.577,157.207 73.5,158C 74.6721,158.419 75.6721,159.085 76.5,160C 73.5716,159.544 70.5716,159.544 67.5,160C 66.944,160.383 66.6107,160.883 66.5,161.5C 65.5222,161.811 64.8555,162.478 64.5,163.5C 66.444,164.801 68.444,165.801 70.5,166.5C 69.8333,166.833 69.1667,167.167 68.5,167.5C 61.5361,168.553 54.5361,168.72 47.5,168C 40.708,166.137 34.0413,163.97 27.5,161.5C 17.9095,156.244 10.2429,148.911 4.5,139.5C 6.23845,136.736 7.57178,133.736 8.5,130.5C 11.9988,133.166 14.9988,136.333 17.5,140C 18.3317,140.688 18.9984,140.521 19.5,139.5C 16.4724,135.639 13.6391,131.639 11,127.5C 10.3333,126.5 10.3333,125.5 11,124.5C 14.1754,127.343 17.0087,130.51 19.5,134C 23.0709,136.421 26.7375,138.587 30.5,140.5 Z"/></g>
<g><path style="opacity:1" fill="#727ba1" d="M -0.5,130.5 C 1.4046,133.304 3.07127,136.304 4.5,139.5C 10.2429,148.911 17.9095,156.244 27.5,161.5C 26.0695,161.579 24.7362,161.246 23.5,160.5C 22.7025,160.957 22.3691,161.624 22.5,162.5C 20.7105,161.123 18.7105,160.123 16.5,159.5C 14.2743,154.295 10.941,150.629 6.5,148.5C 8.31237,153.278 10.3124,157.945 12.5,162.5C 13.5527,165.607 14.886,168.607 16.5,171.5C 15.2921,170.766 13.9587,170.433 12.5,170.5C 12.5,169.5 12.5,168.5 12.5,167.5C 8.16667,167.5 3.83333,167.5 -0.5,167.5C -0.5,167.167 -0.5,166.833 -0.5,166.5C 3.55461,166.824 7.55461,166.491 11.5,165.5C 8.3853,158.374 5.8853,151.04 4,143.5C 2.30573,142.301 0.805727,140.968 -0.5,139.5C -0.5,136.5 -0.5,133.5 -0.5,130.5 Z"/></g>
<g><path style="opacity:1" fill="#7e6a7f" d="M 130.5,136.5 C 129.833,137.5 129.167,138.5 128.5,139.5C 124.053,141.707 120.053,144.374 116.5,147.5C 115.735,147.077 114.902,146.743 114,146.5C 112.37,147.713 110.536,148.546 108.5,149C 109,149.5 109.5,150 110,150.5C 111.599,148.964 113.433,148.464 115.5,149C 114.023,150.812 112.69,152.645 111.5,154.5C 110.448,152.744 108.781,152.077 106.5,152.5C 106.068,151.29 105.401,150.29 104.5,149.5C 113.686,146.241 122.352,141.907 130.5,136.5 Z"/></g>
<g><path style="opacity:1" fill="#767aa4" d="M 4.5,106.5 C 5.16667,106.833 5.83333,107.167 6.5,107.5C 8.4302,111.1 11.0969,114.1 14.5,116.5C 15.2899,117.794 16.2899,118.961 17.5,120C 22.1667,122.333 26.8333,124.667 31.5,127C 36.7279,127.296 41.7279,128.129 46.5,129.5C 43.4659,131.018 40.1325,131.851 36.5,132C 37.3805,132.708 38.0472,133.542 38.5,134.5C 45.1354,142.318 53.4687,147.318 63.5,149.5C 61.4548,151.984 58.7882,152.984 55.5,152.5C 55.6225,155.292 56.9558,157.292 59.5,158.5C 62.2044,159.866 63.0378,161.532 62,163.5C 49.7994,158.151 39.2994,150.484 30.5,140.5C 27.6754,136.863 24.8421,133.197 22,129.5C 21.3947,127.365 21.8947,127.031 23.5,128.5C 27.3732,134.882 32.2066,140.549 38,145.5C 38.1667,144.5 38.3333,143.5 38.5,142.5C 37.1355,138.766 35.4689,135.099 33.5,131.5C 30.1162,130.161 26.7829,128.828 23.5,127.5C 14.2893,122.626 6.95598,115.626 1.5,106.5C 2.42463,105.438 3.42463,105.438 4.5,106.5 Z"/></g>
<g><path style="opacity:1" fill="#7c8fc1" d="M 23.5,127.5 C 26.7829,128.828 30.1162,130.161 33.5,131.5C 35.4689,135.099 37.1355,138.766 38.5,142.5C 38.3333,143.5 38.1667,144.5 38,145.5C 32.2066,140.549 27.3732,134.882 23.5,128.5C 23.5,128.167 23.5,127.833 23.5,127.5 Z"/></g>
<g><path style="opacity:1" fill="#777ca5" d="M 128.5,139.5 C 130.535,146.678 131.535,154.011 131.5,161.5C 128.68,161.752 126.014,161.252 123.5,160C 120.31,157.636 117.31,155.136 114.5,152.5C 115.942,151.18 116.608,149.514 116.5,147.5C 120.053,144.374 124.053,141.707 128.5,139.5 Z"/></g>
<g><path style="opacity:1" fill="#4f5175" d="M 63.5,149.5 C 63.5,150.167 63.5,150.833 63.5,151.5C 62.1497,152.483 61.1497,153.816 60.5,155.5C 59.549,154.674 58.549,154.508 57.5,155C 58.8228,155.816 59.4894,156.983 59.5,158.5C 56.9558,157.292 55.6225,155.292 55.5,152.5C 58.7882,152.984 61.4548,151.984 63.5,149.5 Z"/></g>
<g><path style="opacity:1" fill="#7b92ca" d="M -0.5,139.5 C 0.805727,140.968 2.30573,142.301 4,143.5C 5.8853,151.04 8.3853,158.374 11.5,165.5C 7.55461,166.491 3.55461,166.824 -0.5,166.5C -0.5,157.5 -0.5,148.5 -0.5,139.5 Z"/></g>
<g><path style="opacity:1" fill="#b1b7d2" d="M 16.5,159.5 C 16.3059,161.912 14.9726,162.912 12.5,162.5C 10.3124,157.945 8.31237,153.278 6.5,148.5C 10.941,150.629 14.2743,154.295 16.5,159.5 Z"/></g>
<g><path style="opacity:1" fill="#9e9fc8" d="M 179.5,154.5 C 179.5,158.833 179.5,163.167 179.5,167.5C 177.308,171.098 176.308,175.098 176.5,179.5C 175.167,179.5 173.833,179.5 172.5,179.5C 172.344,175.418 172.844,171.418 174,167.5C 174.79,162.647 176.623,158.314 179.5,154.5 Z"/></g>
<g><path style="opacity:1" fill="#798dc4" d="M 141.5,164.5 C 139.967,168.704 137.3,172.037 133.5,174.5C 130.713,173.523 127.713,173.19 124.5,173.5C 122.708,172.691 120.708,172.191 118.5,172C 113.366,166.159 112.032,159.659 114.5,152.5C 117.31,155.136 120.31,157.636 123.5,160C 126.014,161.252 128.68,161.752 131.5,161.5C 131.535,154.011 130.535,146.678 128.5,139.5C 129.167,138.5 129.833,137.5 130.5,136.5C 134.167,134.833 136.833,132.167 138.5,128.5C 139.391,127.89 140.391,127.557 141.5,127.5C 144.342,126.828 146.842,125.494 149,123.5C 150.534,137.94 148.034,151.607 141.5,164.5 Z"/></g>
<g><path style="opacity:1" fill="#7b7da5" d="M 169.5,82.5 C 172.833,85.5 176.167,88.5 179.5,91.5C 179.5,97.5 179.5,103.5 179.5,109.5C 177.731,105.704 176.231,101.704 175,97.5C 175.859,104.77 176.693,112.104 177.5,119.5C 177.64,121.03 178.307,122.03 179.5,122.5C 179.5,133.167 179.5,143.833 179.5,154.5C 176.623,158.314 174.79,162.647 174,167.5C 172.844,171.418 172.344,175.418 172.5,179.5C 170.833,179.5 169.167,179.5 167.5,179.5C 167.666,175.154 167.499,170.821 167,166.5C 163.492,170.864 159.992,175.197 156.5,179.5C 155.833,179.5 155.167,179.5 154.5,179.5C 158.659,174.531 162.825,169.531 167,164.5C 177.337,143.48 179.003,121.813 172,99.5C 171.79,105.231 171.124,110.897 170,116.5C 169.846,107.086 169.346,98.4197 168.5,90.5C 167.662,90.1583 167.328,89.4916 167.5,88.5C 167.875,86.3024 168.542,84.3024 169.5,82.5 Z"/></g>
<g><path style="opacity:1" fill="#7e7e8e" d="M 79.5,166.5 C 76.229,163.954 72.5624,163.121 68.5,164C 69.624,164.249 70.624,164.749 71.5,165.5C 71.3764,166.107 71.0431,166.44 70.5,166.5C 68.444,165.801 66.444,164.801 64.5,163.5C 64.8555,162.478 65.5222,161.811 66.5,161.5C 71.6643,160.613 76.4976,161.613 81,164.5C 81.5281,165.816 81.0281,166.483 79.5,166.5 Z"/></g>
<g><path style="opacity:1" fill="#666270" d="M 38.5,134.5 C 47.4711,141.652 57.4711,146.652 68.5,149.5C 68.5,149.833 68.5,150.167 68.5,150.5C 67.5489,151.919 67.2155,153.585 67.5,155.5C 71.4952,154.883 74.8285,156.049 77.5,159C 79.8333,159.333 82.1667,159.667 84.5,160C 85.056,160.383 85.3893,160.883 85.5,161.5C 87.3841,161.712 88.7174,162.712 89.5,164.5C 91.0267,162.807 92.3601,160.973 93.5,159C 95.3921,158.027 97.3921,157.36 99.5,157C 101.037,155.293 102.704,153.793 104.5,152.5C 105.167,152.5 105.833,152.5 106.5,152.5C 100.008,157.056 100.175,158.056 107,155.5C 108.226,155.645 109.393,155.978 110.5,156.5C 111.298,156.043 111.631,155.376 111.5,154.5C 112.69,152.645 114.023,150.812 115.5,149C 113.433,148.464 111.599,148.964 110,150.5C 109.5,150 109,149.5 108.5,149C 110.536,148.546 112.37,147.713 114,146.5C 114.902,146.743 115.735,147.077 116.5,147.5C 116.608,149.514 115.942,151.18 114.5,152.5C 112.032,159.659 113.366,166.159 118.5,172C 120.708,172.191 122.708,172.691 124.5,173.5C 122.473,173.338 120.473,173.505 118.5,174C 119.406,175.699 119.739,177.533 119.5,179.5C 118.5,179.5 117.5,179.5 116.5,179.5C 117.929,176.537 117.429,173.87 115,171.5C 114.617,172.056 114.117,172.389 113.5,172.5C 113.672,171.508 113.338,170.842 112.5,170.5C 112.893,167.07 112.227,163.904 110.5,161C 108.5,160.333 106.5,160.333 104.5,161C 99.4565,164.104 98.2899,168.271 101,173.5C 103.478,175.639 105.978,177.639 108.5,179.5C 105.167,179.5 101.833,179.5 98.5,179.5C 98.5039,174.971 96.5039,171.471 92.5,169C 91.5632,168.308 90.8966,168.475 90.5,169.5C 89.5041,169.414 88.6708,169.748 88,170.5C 87.502,173.482 87.3354,176.482 87.5,179.5C 85.1667,179.5 82.8333,179.5 80.5,179.5C 84.7569,174.793 84.4236,170.459 79.5,166.5C 81.0281,166.483 81.5281,165.816 81,164.5C 76.4976,161.613 71.6643,160.613 66.5,161.5C 66.6107,160.883 66.944,160.383 67.5,160C 70.5716,159.544 73.5716,159.544 76.5,160C 75.6721,159.085 74.6721,158.419 73.5,158C 69.577,157.207 65.7436,157.374 62,158.5C 61.3828,157.551 61.5494,156.718 62.5,156C 63.7932,155.51 65.1266,155.343 66.5,155.5C 66.9118,153.027 65.9118,151.694 63.5,151.5C 63.5,150.833 63.5,150.167 63.5,149.5C 53.4687,147.318 45.1354,142.318 38.5,134.5 Z"/></g>
<g><path style="opacity:1" fill="#1a1a24" d="M 112.5,170.5 C 111.577,171.303 110.577,171.47 109.5,171C 107.602,164.981 106.769,165.148 107,171.5C 108.995,174.806 111.162,175.139 113.5,172.5C 114.117,172.389 114.617,172.056 115,171.5C 117.429,173.87 117.929,176.537 116.5,179.5C 113.833,179.5 111.167,179.5 108.5,179.5C 105.978,177.639 103.478,175.639 101,173.5C 98.2899,168.271 99.4565,164.104 104.5,161C 106.5,160.333 108.5,160.333 110.5,161C 112.227,163.904 112.893,167.07 112.5,170.5 Z"/></g>
<g><path style="opacity:1" fill="#a8abcb" d="M 94.5,159.5 C 95.675,159.281 96.675,159.614 97.5,160.5C 93.1095,167.382 92.1095,167.049 94.5,159.5 Z"/></g>
<g><path style="opacity:1" fill="#a7a9bc" d="M 85.5,161.5 C 87.4364,163.243 87.7698,165.243 86.5,167.5C 84.5,165.5 82.5,163.5 80.5,161.5C 82.0948,160.566 83.7615,160.566 85.5,161.5 Z"/></g>
<g><path style="opacity:1" fill="#a8a7c3" d="M 106.5,152.5 C 108.781,152.077 110.448,152.744 111.5,154.5C 111.631,155.376 111.298,156.043 110.5,156.5C 109.393,155.978 108.226,155.645 107,155.5C 100.175,158.056 100.008,157.056 106.5,152.5 Z"/></g>
<g><path style="opacity:1" fill="#9b6c6f" d="M 68.5,150.5 C 68.5,150.167 68.5,149.833 68.5,149.5C 69.8333,149.5 71.1667,149.5 72.5,149.5C 77.9118,151.355 83.5785,152.688 89.5,153.5C 94.547,152.322 99.547,150.988 104.5,149.5C 105.401,150.29 106.068,151.29 106.5,152.5C 105.833,152.5 105.167,152.5 104.5,152.5C 104.083,151.876 103.416,151.543 102.5,151.5C 97.8659,153.534 93.0326,154.867 88,155.5C 81.5137,153.753 75.0137,152.087 68.5,150.5 Z"/></g>
<g><path style="opacity:1" fill="#d1a1a2" d="M 68.5,150.5 C 75.0137,152.087 81.5137,153.753 88,155.5C 93.0326,154.867 97.8659,153.534 102.5,151.5C 103.416,151.543 104.083,151.876 104.5,152.5C 102.704,153.793 101.037,155.293 99.5,157C 97.3921,157.36 95.3921,158.027 93.5,159C 92.3601,160.973 91.0267,162.807 89.5,164.5C 88.7174,162.712 87.3841,161.712 85.5,161.5C 85.3893,160.883 85.056,160.383 84.5,160C 82.1667,159.667 79.8333,159.333 77.5,159C 74.8285,156.049 71.4952,154.883 67.5,155.5C 67.2155,153.585 67.5489,151.919 68.5,150.5 Z"/></g>
<g><path style="opacity:1" fill="#9ca0c4" d="M 16.5,159.5 C 18.7105,160.123 20.7105,161.123 22.5,162.5C 29.1313,167.796 35.4646,173.463 41.5,179.5C 35.8333,179.5 30.1667,179.5 24.5,179.5C 22.1667,176.5 19.5,173.833 16.5,171.5C 14.886,168.607 13.5527,165.607 12.5,162.5C 14.9726,162.912 16.3059,161.912 16.5,159.5 Z"/></g>
<g><path style="opacity:1" fill="#949cbc" d="M 27.5,162.5 C 29.1401,163.32 30.8068,164.153 32.5,165C 34.3329,167.998 36.6662,170.498 39.5,172.5C 39.5,173.167 39.5,173.833 39.5,174.5C 35.1185,170.785 31.1185,166.785 27.5,162.5 Z"/></g>
<g><path style="opacity:1" fill="#6a74a1" d="M 27.5,162.5 C 27.5,162.167 27.5,161.833 27.5,161.5C 34.0413,163.97 40.708,166.137 47.5,168C 54.5361,168.72 61.5361,168.553 68.5,167.5C 67.8902,168.391 67.5569,169.391 67.5,170.5C 67.1667,170.5 66.8333,170.5 66.5,170.5C 64.4458,170.365 62.7791,171.032 61.5,172.5C 53.5266,170.681 45.3599,168.681 37,166.5C 37.4826,168.537 38.3159,170.537 39.5,172.5C 36.6662,170.498 34.3329,167.998 32.5,165C 30.8068,164.153 29.1401,163.32 27.5,162.5 Z"/></g>
<g><path style="opacity:1" fill="#1c1a26" d="M 79.5,166.5 C 84.4236,170.459 84.7569,174.793 80.5,179.5C 75.8333,179.5 71.1667,179.5 66.5,179.5C 66.07,174.504 67.4034,173.67 70.5,177C 73.5572,177.981 75.5572,176.981 76.5,174C 73.5553,167.833 72.5553,168 73.5,174.5C 70.7079,174.378 68.7079,173.044 67.5,170.5C 67.5569,169.391 67.8902,168.391 68.5,167.5C 69.1667,167.167 69.8333,166.833 70.5,166.5C 71.0431,166.44 71.3764,166.107 71.5,165.5C 70.624,164.749 69.624,164.249 68.5,164C 72.5624,163.121 76.229,163.954 79.5,166.5 Z"/></g>
<g><path style="opacity:1" fill="#6e8d8a" d="M -0.5,167.5 C 3.83333,167.5 8.16667,167.5 12.5,167.5C 12.5,168.5 12.5,169.5 12.5,170.5C 11.7375,171.268 10.7375,171.768 9.5,172C 6.18323,172.498 2.8499,172.665 -0.5,172.5C -0.5,170.833 -0.5,169.167 -0.5,167.5 Z"/></g>
<g><path style="opacity:1" fill="#7c90c6" d="M 61.5,172.5 C 57.8334,175.062 53.8334,177.062 49.5,178.5C 45.5638,178.525 42.2305,177.191 39.5,174.5C 39.5,173.833 39.5,173.167 39.5,172.5C 38.3159,170.537 37.4826,168.537 37,166.5C 45.3599,168.681 53.5266,170.681 61.5,172.5 Z"/></g>
<g><path style="opacity:1" fill="#798196" d="M 27.5,161.5 C 27.5,161.833 27.5,162.167 27.5,162.5C 31.1185,166.785 35.1185,170.785 39.5,174.5C 42.2305,177.191 45.5638,178.525 49.5,178.5C 49.5,178.833 49.5,179.167 49.5,179.5C 46.8333,179.5 44.1667,179.5 41.5,179.5C 35.4646,173.463 29.1313,167.796 22.5,162.5C 22.3691,161.624 22.7025,160.957 23.5,160.5C 24.7362,161.246 26.0695,161.579 27.5,161.5 Z"/></g>
<g><path style="opacity:1" fill="#606f56" d="M 90.5,169.5 C 90.5,169.833 90.5,170.167 90.5,170.5C 89.1201,170.962 88.4534,171.962 88.5,173.5C 88.8457,174.849 89.179,176.183 89.5,177.5C 89.5,178.167 89.5,178.833 89.5,179.5C 88.8333,179.5 88.1667,179.5 87.5,179.5C 87.3354,176.482 87.502,173.482 88,170.5C 88.6708,169.748 89.5041,169.414 90.5,169.5 Z"/></g>
<g><path style="opacity:1" fill="#7c7c85" d="M 112.5,170.5 C 113.338,170.842 113.672,171.508 113.5,172.5C 111.162,175.139 108.995,174.806 107,171.5C 106.769,165.148 107.602,164.981 109.5,171C 110.577,171.47 111.577,171.303 112.5,170.5 Z"/></g>
<g><path style="opacity:1" fill="#b5d497" d="M 90.5,170.5 C 90.3184,172.591 90.6518,174.591 91.5,176.5C 91.0431,177.298 90.3764,177.631 89.5,177.5C 89.179,176.183 88.8457,174.849 88.5,173.5C 88.4534,171.962 89.1201,170.962 90.5,170.5 Z"/></g>
<g><path style="opacity:1" fill="#787ba6" d="M 143.5,179.5 C 141.833,179.5 140.167,179.5 138.5,179.5C 138.843,177.517 138.176,176.183 136.5,175.5C 140.768,172.411 144.934,169.077 149,165.5C 154.252,157.332 159.252,148.999 164,140.5C 163.914,143.702 162.914,146.702 161,149.5C 154.509,159.168 148.676,169.168 143.5,179.5 Z"/></g>
<g><path style="opacity:1" fill="#1b212e" d="M 66.5,170.5 C 64.6773,173.163 63.6773,176.163 63.5,179.5C 58.8333,179.5 54.1667,179.5 49.5,179.5C 49.5,179.167 49.5,178.833 49.5,178.5C 53.8334,177.062 57.8334,175.062 61.5,172.5C 62.7791,171.032 64.4458,170.365 66.5,170.5 Z"/></g>
<g><path style="opacity:1" fill="#202330" d="M 124.5,173.5 C 127.713,173.19 130.713,173.523 133.5,174.5C 132.571,175.315 131.571,176.148 130.5,177C 132.506,176.85 134.506,176.35 136.5,175.5C 138.176,176.183 138.843,177.517 138.5,179.5C 132.167,179.5 125.833,179.5 119.5,179.5C 119.739,177.533 119.406,175.699 118.5,174C 120.473,173.505 122.473,173.338 124.5,173.5 Z"/></g>
<g><path style="opacity:1" fill="#7387b9" d="M 12.5,170.5 C 13.9587,170.433 15.2921,170.766 16.5,171.5C 19.5,173.833 22.1667,176.5 24.5,179.5C 16.1667,179.5 7.83333,179.5 -0.5,179.5C -0.5,177.167 -0.5,174.833 -0.5,172.5C 2.8499,172.665 6.18323,172.498 9.5,172C 10.7375,171.768 11.7375,171.268 12.5,170.5 Z"/></g>
<g><path style="opacity:1" fill="#7b9e5c" d="M 98.5,179.5 C 95.5,179.5 92.5,179.5 89.5,179.5C 89.5,178.833 89.5,178.167 89.5,177.5C 90.3764,177.631 91.0431,177.298 91.5,176.5C 90.6518,174.591 90.3184,172.591 90.5,170.5C 90.5,170.167 90.5,169.833 90.5,169.5C 90.8966,168.475 91.5632,168.308 92.5,169C 96.5039,171.471 98.5039,174.971 98.5,179.5 Z"/></g>
<g><path style="opacity:1" fill="#7e7fa8" d="M 179.5,167.5 C 179.5,171.5 179.5,175.5 179.5,179.5C 178.5,179.5 177.5,179.5 176.5,179.5C 176.308,175.098 177.308,171.098 179.5,167.5 Z"/></g>
<g><path style="opacity:1" fill="#75767d" d="M 66.5,179.5 C 65.5,179.5 64.5,179.5 63.5,179.5C 63.6773,176.163 64.6773,173.163 66.5,170.5C 66.8333,170.5 67.1667,170.5 67.5,170.5C 68.7079,173.044 70.7079,174.378 73.5,174.5C 72.5553,168 73.5553,167.833 76.5,174C 75.5572,176.981 73.5572,177.981 70.5,177C 67.4034,173.67 66.07,174.504 66.5,179.5 Z"/></g>
<g><path style="opacity:1" fill="#7d90c6" d="M 167.5,179.5 C 163.833,179.5 160.167,179.5 156.5,179.5C 159.992,175.197 163.492,170.864 167,166.5C 167.499,170.821 167.666,175.154 167.5,179.5 Z"/></g>
</svg>
